<svg width="1920" height="699" viewBox="0 0 1920 699" fill="none" xmlns="http://www.w3.org/2000/svg">
    <g clip-path="url(#clip0_1106_4345)">
        <path
            d="M1920 605.137V582.535V-254.5H0.00012207V582.918C723.638 758.858 1137.15 652.013 1137.15 652.013C1479.27 573.095 1920 605.137 1920 605.137Z"
            fill="#2BACE6" fill-opacity="0.1" />
        <path
            d="M756.288 650.099C1125.17 669.246 1303.86 741.242 1920 658.907V-257H0.00012207V699.5C271.283 626.355 756.288 650.099 756.288 650.099Z"
            fill="#2CA1E4" fill-opacity="0.2" />
        <path
            d="M727.204 618.313C1426.34 719.414 1920 584.23 1920 584.23V-257H0.00012207V618.313C314.738 570.444 727.204 618.313 727.204 618.313Z"
            fill="#2075C5" fill-opacity="0.1" />
        <g filter="url(#filter0_d_1106_4345)">
            <path
                d="M1920 583.068V-256H0V560.091C331.5 629.5 795.4 583.068 795.4 583.068C1315.19 530.133 1376.2 535.473 1915.91 582.711L1920 583.068Z"
                fill="url(#paint0_linear_1106_4345)" />
        </g>
    </g>
    <defs>
        <filter id="filter0_d_1106_4345" x="-70" y="-322" width="2060" height="994.274"
            filterUnits="userSpaceOnUse" color-interpolation-filters="sRGB">
            <feFlood flood-opacity="0" result="BackgroundImageFix" />
            <feColorMatrix in="SourceAlpha" type="matrix"
                values="0 0 0 0 0 0 0 0 0 0 0 0 0 0 0 0 0 0 127 0" result="hardAlpha" />
            <feOffset dy="4" />
            <feGaussianBlur stdDeviation="35" />
            <feComposite in2="hardAlpha" operator="out" />
            <feColorMatrix type="matrix"
                values="0 0 0 0 0.752941 0 0 0 0 0.843137 0 0 0 0 0.898039 0 0 0 1 0" />
            <feBlend mode="normal" in2="BackgroundImageFix" result="effect1_dropShadow_1106_4345" />
            <feBlend mode="normal" in="SourceGraphic" in2="effect1_dropShadow_1106_4345"
                result="shape" />
        </filter>
        <linearGradient id="paint0_linear_1106_4345" x1="1920" y1="171.137" x2="0" y2="171.137"
            gradientUnits="userSpaceOnUse">
            <stop stop-color="#2A5298" />
            <stop offset="0.9999" stop-color="#1E3C72" />
            <stop offset="1" stop-color="#1E3C72" />
        </linearGradient>
        <clipPath id="clip0_1106_4345">
            <rect width="1920" height="699" fill="white" />
        </clipPath>
    </defs>
</svg>