<svg width="331" height="331" viewBox="0 0 331 331" fill="none" xmlns="http://www.w3.org/2000/svg">
<path d="M216.047 65.6122C187.664 87.3623 173.72 125.763 165.913 149.138C168.711 131.63 171.238 110.782 149.172 91.1528C135.951 106.766 133.694 132.081 142.855 150.988C137.169 144.671 121.962 130.727 98.8581 126.26C87.7574 124.094 73.859 124.635 60.0508 129.193C75.1225 85.2414 116.773 53.6992 165.823 53.6992C183.918 53.6992 200.975 57.9861 216.047 65.6122Z" fill="#1D65F9"/>
<path d="M277.627 165.518C277.627 227.294 227.583 277.338 165.808 277.338C148.119 277.338 131.377 273.231 116.531 265.921C139.906 256.986 166.304 238.846 184.85 179.281C202.494 122.74 212.602 92.7321 229.298 73.4639C258.494 93.6346 277.627 127.343 277.627 165.518Z" fill="#1D65F9"/>
<path d="M131.344 203.965C131.344 226.392 118.754 245.885 100.118 255.993C72.1853 235.687 54 202.746 54 165.518C54 159.065 54.5415 152.748 55.6245 146.566C60.5431 145.302 65.7324 144.625 71.0572 144.625C104.359 144.625 131.344 171.204 131.344 203.965Z" fill="#1D65F9"/>
<path d="M295.999 5.12158C295.999 8.77669 280.16 28.5865 252.634 34.7686C234.539 38.8298 225.018 44.335 217.572 47.4035C220.596 39.9579 233.321 23.4874 251.371 18.2529C273.933 11.7549 286.072 10.0402 295.999 5.12158Z" fill="#044DE2"/>
</svg>
