<svg width="135" height="44" viewBox="0 0 135 44" fill="none" xmlns="http://www.w3.org/2000/svg">
<path fill-rule="evenodd" clip-rule="evenodd" d="M58.4104 19.0692C58.255 19.4352 57.5502 21.9198 56.0673 27.3294C55.715 28.6139 55.239 30.3232 55.0095 31.1278C54.78 31.9323 54.5923 32.6567 54.5923 32.7375C54.5923 32.8181 54.9592 32.8603 55.4077 32.8313L56.2232 32.7785L56.7254 31.1785L57.2277 29.5782H58.8596C59.757 29.5782 60.55 29.5707 60.6217 29.5615C60.7503 29.5447 61.161 30.707 61.5292 32.1298L61.7194 32.865H62.5805C63.0538 32.865 63.4392 32.8067 63.4371 32.7354C63.4313 32.5517 61.6656 26.1285 59.8765 19.7815C59.6898 19.1195 59.5267 18.8673 59.2347 18.7893C58.6422 18.631 58.5887 18.649 58.4104 19.0692ZM64.4822 25.859V32.865H67.0591C69.4543 32.865 69.6776 32.8372 70.2232 32.4706C71.1567 31.8433 71.2436 31.5093 71.2459 28.5403C71.2473 26.1877 71.2064 25.7913 70.9106 25.3078C70.4022 24.4766 69.9524 24.3106 67.9524 24.2156L66.1305 24.1291L66.0811 22.3559L66.0316 20.5828H68.5536H71.0755V19.7179V18.8529H67.7788H64.4822V25.859ZM72.29 25.8496V32.865H73.0317H73.7736L74.934 29.9676C75.572 28.3737 76.3673 26.4083 76.7008 25.5995L77.3072 24.1291L77.3144 28.4972L77.3218 32.865H78.1892H79.0568V25.859V18.8529H78.3566C77.5653 18.8529 77.6059 18.7884 76.2778 22.1397C75.9196 23.0437 75.2856 24.6174 74.8692 25.637L74.1119 27.491L74.025 23.2152L73.9383 18.9394L73.1142 18.8867L72.29 18.8339V25.8496ZM79.9244 19.7179V20.5828H81.2256H82.527V26.7239V32.865H83.3944H84.262V26.7239V20.5828H85.4765H86.6912V19.7179V18.8529H83.3077H79.9244V19.7179ZM87.8214 19.1557C87.8909 19.3223 88.0867 19.8087 88.2562 20.2368C88.4259 20.6651 88.759 21.4824 88.9966 22.0532C89.2343 22.6241 89.7117 23.7797 90.0578 24.6213C90.404 25.4628 90.7637 26.2939 90.8572 26.4682C90.9844 26.7049 90.8726 27.1921 90.4147 28.3977C90.0778 29.2849 89.685 30.2621 89.5415 30.5693C89.2231 31.2517 88.7733 32.5076 88.7733 32.7139C88.7733 32.7972 89.1441 32.865 89.5974 32.865H90.4217L91.0105 31.438C91.3342 30.6531 92.2045 28.5317 92.9443 26.7239C93.6842 24.9162 94.688 22.4682 95.1751 21.284C95.662 20.0997 96.0604 19.0681 96.0604 18.9918C96.0604 18.9154 95.6774 18.8529 95.2092 18.8529H94.358L93.5404 20.799C93.0909 21.8696 92.5666 23.115 92.3751 23.5669C92.1836 24.0188 91.9782 24.3868 91.9184 24.3847C91.8585 24.3826 91.5416 23.7015 91.2142 22.8712C90.8868 22.0406 90.3619 20.7969 90.0475 20.1071L89.4759 18.8529H88.5856C87.805 18.8529 87.7106 18.8903 87.8214 19.1557ZM97.1808 19.0695C97.1349 19.1887 97.1179 22.322 97.1428 26.0324L97.1884 32.7785L98.0125 32.8313L98.8366 32.8842V29.4149V25.9455H100.494C102.281 25.9455 102.81 25.7796 103.478 25.0092C103.836 24.596 103.868 24.3873 103.868 22.4731C103.868 20.0673 103.705 19.5868 102.705 19.0533C102.163 18.7638 97.2929 18.7782 97.1808 19.0695ZM104.909 25.859V32.865H105.597C106.101 32.865 106.333 32.7749 106.466 32.529C106.646 32.1931 108.671 27.2531 109.239 25.7617C109.91 24.0039 109.93 24.0874 109.936 28.5837L109.941 32.865H110.809H111.676V25.8491V18.833L110.944 18.8863L110.212 18.9394L109.463 20.7558C109.051 21.7548 108.268 23.6871 107.723 25.0498L106.731 27.5275L106.637 23.2334C106.585 20.8718 106.526 18.9201 106.507 18.8962C106.487 18.8723 106.12 18.8529 105.69 18.8529H104.909V25.859ZM112.544 25.859V32.865H115.927H119.31V32.0002V31.1351H116.795H114.279V28.5403V25.9455H115.561H116.843L116.923 25.2969C117.049 24.2696 116.981 24.2156 115.562 24.2156H114.279V22.3992V20.5828H116.795H119.31V19.7179V18.8529H115.927H112.544V25.859ZM120.467 18.9683C120.404 19.0316 120.351 22.1844 120.351 25.9743V32.865H121.219H122.087V29.4052V25.9455H123.735H125.383V29.4052V32.865H126.251H127.118V25.8496V18.8339L126.294 18.8867L125.47 18.9394L125.422 21.5775L125.374 24.2156H123.73H122.087V21.5342V18.8529H121.335C120.921 18.8529 120.531 18.9048 120.467 18.9683ZM128.159 19.7179V20.5828H129.372H130.584L130.63 26.6807L130.675 32.7785L131.499 32.8313L132.323 32.8842V26.7334V20.5828H133.625H134.926V19.7179V18.8529H131.543H128.159V19.7179ZM102.133 22.3992V24.2156H100.485H98.8366V22.3992V20.5828H100.485H102.133V22.3992ZM59.5054 24.6482C59.6631 25.219 59.9108 26.1101 60.0559 26.6281C60.202 27.1504 60.2533 27.636 60.1711 27.7181C60.0893 27.7996 59.5231 27.8427 58.9122 27.8141C57.9144 27.767 57.8076 27.727 57.8546 27.4159C57.9841 26.5614 59.0007 23.3542 59.1037 23.4752C59.1666 23.5494 59.3475 24.0771 59.5054 24.6482ZM69.514 28.5403V31.1351H67.8657H66.2172V28.5403V25.9455H67.8657H69.514V28.5403Z" fill="#1567DA"/>
<path d="M24.8629 26.5693V25.1819L48.8971 19.0616V29.8353C48.8971 35.7612 48.8318 40.6095 48.7518 40.6095C48.6034 40.6095 43.69 38.0475 39.9136 36.0015C38.7585 35.3755 34.8996 33.3095 31.3382 31.41L28.1005 29.6835L24.8629 27.9568V26.5693Z" fill="#1567DA"/>
<path d="M24.8629 26.5693V25.1819L48.8971 19.0616V29.8353C48.8971 35.7612 48.8318 40.6095 48.7518 40.6095C48.6034 40.6095 43.69 38.0475 39.9136 36.0015C38.7585 35.3755 34.8996 33.3095 31.3382 31.41L28.1005 29.6835L24.8629 27.9568V26.5693Z" fill="url(#paint0_linear_11424_5703)" style="mix-blend-mode:multiply"/>
<path d="M27.9965 5.4438C36.633 3.24535 44.6458 1.1615 47.1041 0.474392C47.9632 0.234224 48.7204 0.0208222 48.7864 0.000216014C48.9772 -0.059234 73.7348 12.1721 73.7598 12.3381C73.7723 12.4203 73.3226 12.6057 72.761 12.7502C72.1992 12.8947 69.2519 13.6545 66.2115 14.4387C63.1711 15.2227 58.5746 16.4008 55.9968 17.0564C53.419 17.7123 50.7965 18.4124 50.1683 18.6128L49.0267 18.9771L24.2712 24.9536L18.8626 22.3015C15.8881 20.843 13.3733 19.6495 13.2745 19.6493C13.1758 19.6493 13.1251 23.0599 13.1616 27.2285C13.2123 33.0006 13.1594 34.8081 12.94 34.8081C12.7814 34.8081 12.2403 34.6214 11.7378 34.3935L10.8242 33.9791L10.818 26.236C10.8146 21.9775 10.9062 18.4356 11.0215 18.3653C11.1372 18.2949 13.3813 17.6886 16.0087 17.0178C21.7477 15.5524 26.4484 14.3494 31.5449 13.0423C33.6288 12.5077 35.3863 12.0702 35.4505 12.0702C35.5148 12.0702 35.5673 11.9819 35.5673 11.8739C35.5673 11.7659 35.0286 11.4288 34.3698 11.1247C32.9479 10.4684 33.3912 10.3964 24.6674 12.7002C21.4752 13.5432 17.0247 14.7009 14.7774 15.2725C12.5302 15.8442 10.1508 16.4802 9.48984 16.6858L8.2881 17.0593L4.14598 14.9792C1.86773 13.8352 0.00192796 12.8397 5.18901e-06 12.7671C-0.00215792 12.6943 0.672253 12.4677 1.49832 12.2633C3.7261 11.7123 14.5962 8.91913 19.8247 7.55391C22.3363 6.89806 26.0137 5.94854 27.9965 5.4438Z" fill="#1567DA"/>
<path d="M59.9667 41.5892L59.8974 44H58.7555V42.5942H58.3564V41.5892H59.9667ZM54.4984 42.5942V36.6457H55.6514V41.5834H58.0128V36.6457H59.1796V42.5942H54.4984Z" fill="#FD7E14"/>
<path d="M60.695 36.6457H61.8923V40.3867H61.9394L64.3922 36.6457H65.4427V42.5942H64.2426V38.8502H64.201L61.7343 42.5942H60.695V36.6457Z" fill="#FD7E14"/>
<path d="M68.6792 37.2847H69.9485C70.4031 37.2847 70.8059 37.3854 71.157 37.5868C71.5099 37.7881 71.7861 38.0718 71.9857 38.4378C72.1871 38.8018 72.2878 39.2298 72.2878 39.7216C72.2878 40.1979 72.1871 40.6133 71.9857 40.9677C71.7861 41.322 71.5099 41.5979 71.157 41.7955C70.8059 41.991 70.4031 42.0888 69.9485 42.0888H68.6792C68.2228 42.0888 67.8181 41.992 67.4652 41.7984C67.1123 41.6028 66.8351 41.3278 66.6337 40.9735C66.4342 40.6191 66.3344 40.2009 66.3344 39.7187C66.3344 39.2269 66.4351 38.7989 66.6365 38.4349C66.8398 38.0689 67.1178 37.7862 67.4708 37.5868C67.8237 37.3854 68.2265 37.2847 68.6792 37.2847ZM68.6792 38.3361C68.4353 38.3361 68.22 38.3874 68.0334 38.4901C67.8486 38.5908 67.7045 38.7437 67.601 38.949C67.4976 39.1542 67.4458 39.4108 67.4458 39.7187C67.4458 40.013 67.4985 40.258 67.6038 40.4536C67.711 40.6491 67.8569 40.7953 68.0417 40.8921C68.2265 40.989 68.439 41.0374 68.6792 41.0374H69.9569C70.1989 41.0374 70.4105 40.988 70.5916 40.8892C70.7745 40.7905 70.9158 40.6433 71.0156 40.4477C71.1172 40.2522 71.168 40.0101 71.168 39.7216C71.168 39.4137 71.1172 39.1572 71.0156 38.9519C70.9158 38.7466 70.7745 38.5927 70.5916 38.4901C70.4105 38.3874 70.1989 38.3361 69.9569 38.3361H68.6792ZM69.882 36.5411V42.8382H68.7429V36.5411H69.882Z" fill="#FD7E14"/>
<path d="M73.1719 42.5942V36.6457H75.4113C75.8418 36.6457 76.2086 36.7319 76.5116 36.9042C76.8147 37.0746 77.0456 37.3118 77.2045 37.6158C77.3653 37.9179 77.4457 38.2664 77.4457 38.6614C77.4457 39.0565 77.3644 39.405 77.2018 39.7071C77.0392 40.0092 76.8036 40.2444 76.495 40.4129C76.1883 40.5814 75.8169 40.6656 75.3808 40.6656H73.9535V39.6577H75.1868C75.4178 39.6577 75.6081 39.6161 75.7578 39.5328C75.9093 39.4476 76.022 39.3305 76.0959 39.1814C76.1717 39.0303 76.2095 38.857 76.2095 38.6614C76.2095 38.4639 76.1717 38.2916 76.0959 38.1444C76.022 37.9953 75.9093 37.8801 75.7578 37.7988C75.6063 37.7155 75.4141 37.6739 75.1813 37.6739H74.372V42.5942H73.1719Z" fill="#FD7E14"/>
<path d="M83.4413 39.6199C83.4413 40.2686 83.3239 40.8205 83.0893 41.2755C82.8565 41.7306 82.5386 42.0782 82.1358 42.3183C81.7349 42.5564 81.2841 42.6755 80.7833 42.6755C80.2789 42.6755 79.8262 42.5555 79.4252 42.3154C79.0243 42.0753 78.7074 41.7277 78.4746 41.2726C78.2418 40.8176 78.1254 40.2667 78.1254 39.6199C78.1254 38.9713 78.2418 38.4194 78.4746 37.9644C78.7074 37.5093 79.0243 37.1627 79.4252 36.9245C79.8262 36.6844 80.2789 36.5644 80.7833 36.5644C81.2841 36.5644 81.7349 36.6844 82.1358 36.9245C82.5386 37.1627 82.8565 37.5093 83.0893 37.9644C83.3239 38.4194 83.4413 38.9713 83.4413 39.6199ZM82.2245 39.6199C82.2245 39.1998 82.1645 38.8454 82.0444 38.5569C81.9261 38.2684 81.7589 38.0496 81.5427 37.9005C81.3265 37.7514 81.0734 37.6768 80.7833 37.6768C80.4932 37.6768 80.2401 37.7514 80.0239 37.9005C79.8077 38.0496 79.6396 38.2684 79.5195 38.5569C79.4012 38.8454 79.3421 39.1998 79.3421 39.6199C79.3421 40.0401 79.4012 40.3945 79.5195 40.683C79.6396 40.9715 79.8077 41.1903 80.0239 41.3394C80.2401 41.4885 80.4932 41.5631 80.7833 41.5631C81.0734 41.5631 81.3265 41.4885 81.5427 41.3394C81.7589 41.1903 81.9261 40.9715 82.0444 40.683C82.1645 40.3945 82.2245 40.0401 82.2245 39.6199Z" fill="#FD7E14"/>
<path d="M84.3302 42.5942V36.6457H86.6029C87.0205 36.6457 87.3688 36.7106 87.6478 36.8403C87.9268 36.97 88.1365 37.1501 88.277 37.3805C88.4174 37.609 88.4876 37.8724 88.4876 38.1706C88.4876 38.4029 88.4433 38.6072 88.3546 38.7834C88.2659 38.9577 88.1439 39.101 87.9887 39.2133C87.8354 39.3237 87.6598 39.4021 87.4621 39.4486V39.5067C87.6783 39.5163 87.8806 39.5802 88.0691 39.6984C88.2594 39.8165 88.4137 39.982 88.5319 40.195C88.6502 40.4061 88.7093 40.6578 88.7093 40.9502C88.7093 41.2659 88.6345 41.5476 88.4848 41.7955C88.337 42.0414 88.1181 42.236 87.828 42.3793C87.5379 42.5226 87.1803 42.5942 86.7554 42.5942H84.3302ZM85.5303 41.566H86.5087C86.8431 41.566 87.087 41.4992 87.2404 41.3656C87.3938 41.23 87.4704 41.05 87.4704 40.8253C87.4704 40.6607 87.4326 40.5155 87.3568 40.3897C87.281 40.2638 87.173 40.165 87.0325 40.0934C86.8939 40.0217 86.7286 39.9859 86.5364 39.9859H85.5303V41.566ZM85.5303 39.1349H86.42C86.5845 39.1349 86.7304 39.1049 86.8579 39.0448C86.9873 38.9829 87.0889 38.8957 87.1628 38.7834C87.2385 38.6711 87.2764 38.5365 87.2764 38.3797C87.2764 38.1648 87.2034 37.9915 87.0575 37.8598C86.9133 37.7281 86.7082 37.6623 86.4422 37.6623H85.5303V39.1349Z" fill="#FD7E14"/>
<path d="M90.2801 38.8444H91.6326C92.0835 38.8444 92.4715 38.9209 92.7967 39.0739C93.1237 39.2249 93.376 39.4389 93.5533 39.7158C93.7307 39.9927 93.8185 40.319 93.8166 40.6946C93.8185 41.0683 93.7307 41.3985 93.5533 41.6851C93.376 41.9697 93.1237 42.1924 92.7967 42.3531C92.4715 42.5138 92.0835 42.5942 91.6326 42.5942H89.5124V36.6457H90.7097V41.5834H91.6326C91.8488 41.5834 92.0308 41.5428 92.1786 41.4614C92.3265 41.3782 92.4382 41.2688 92.514 41.1332C92.5916 40.9957 92.6295 40.8457 92.6276 40.683C92.6295 40.4468 92.5445 40.2473 92.3727 40.0847C92.2027 39.9201 91.956 39.8378 91.6326 39.8378H90.2801V38.8444ZM95.4768 36.6457V42.5942H94.2795V36.6457H95.4768Z" fill="#FD7E14"/>
<path d="M96.4642 42.5942V36.6457H100.289V37.6826H97.6643V39.1H100.092V40.137H97.6643V41.5573H100.3V42.5942H96.4642Z" fill="#FD7E14"/>
<path d="M103.049 42.5942V36.6457H105.322C105.74 36.6457 106.088 36.7106 106.367 36.8403C106.646 36.97 106.856 37.1501 106.996 37.3805C107.137 37.609 107.207 37.8724 107.207 38.1706C107.207 38.4029 107.162 38.6072 107.074 38.7834C106.985 38.9577 106.863 39.101 106.708 39.2133C106.555 39.3237 106.379 39.4021 106.181 39.4486V39.5067C106.398 39.5163 106.6 39.5802 106.788 39.6984C106.979 39.8165 107.133 39.982 107.251 40.195C107.369 40.4061 107.429 40.6578 107.429 40.9502C107.429 41.2659 107.354 41.5476 107.204 41.7955C107.056 42.0414 106.837 42.236 106.547 42.3793C106.257 42.5226 105.9 42.5942 105.475 42.5942H103.049ZM104.25 41.566H105.228C105.562 41.566 105.806 41.4992 105.96 41.3656C106.113 41.23 106.19 41.05 106.19 40.8253C106.19 40.6607 106.152 40.5155 106.076 40.3897C106 40.2638 105.892 40.165 105.752 40.0934C105.613 40.0217 105.448 39.9859 105.256 39.9859H104.25V41.566ZM104.25 39.1349H105.139C105.304 39.1349 105.45 39.1049 105.577 39.0448C105.706 38.9829 105.808 38.8957 105.882 38.7834C105.958 38.6711 105.996 38.5365 105.996 38.3797C105.996 38.1648 105.923 37.9915 105.777 37.8598C105.633 37.7281 105.427 37.6623 105.161 37.6623H104.25V39.1349Z" fill="#FD7E14"/>
<path d="M113.426 39.6199C113.426 40.2686 113.308 40.8205 113.074 41.2755C112.841 41.7306 112.523 42.0782 112.12 42.3183C111.719 42.5564 111.268 42.6755 110.768 42.6755C110.263 42.6755 109.81 42.5555 109.41 42.3154C109.009 42.0753 108.692 41.7277 108.459 41.2726C108.226 40.8176 108.11 40.2667 108.11 39.6199C108.11 38.9713 108.226 38.4194 108.459 37.9644C108.692 37.5093 109.009 37.1627 109.41 36.9245C109.81 36.6844 110.263 36.5644 110.768 36.5644C111.268 36.5644 111.719 36.6844 112.12 36.9245C112.523 37.1627 112.841 37.5093 113.074 37.9644C113.308 38.4194 113.426 38.9713 113.426 39.6199ZM112.209 39.6199C112.209 39.1998 112.149 38.8454 112.029 38.5569C111.91 38.2684 111.743 38.0496 111.527 37.9005C111.311 37.7514 111.058 37.6768 110.768 37.6768C110.477 37.6768 110.224 37.7514 110.008 37.9005C109.792 38.0496 109.624 38.2684 109.504 38.5569C109.385 38.8454 109.326 39.1998 109.326 39.6199C109.326 40.0401 109.385 40.3945 109.504 40.683C109.624 40.9715 109.792 41.1903 110.008 41.3394C110.224 41.4885 110.477 41.5631 110.768 41.5631C111.058 41.5631 111.311 41.4885 111.527 41.3394C111.743 41.1903 111.91 40.9715 112.029 40.683C112.149 40.3945 112.209 40.0401 112.209 39.6199Z" fill="#FD7E14"/>
<path d="M114.315 42.5942V36.6457H116.554C116.984 36.6457 117.351 36.7319 117.654 36.9042C117.957 37.0746 118.188 37.3118 118.347 37.6158C118.508 37.9179 118.588 38.2664 118.588 38.6614C118.588 39.0565 118.507 39.405 118.344 39.7071C118.182 40.0092 117.946 40.2444 117.638 40.4129C117.331 40.5814 116.96 40.6656 116.523 40.6656H115.096V39.6577H116.329C116.56 39.6577 116.751 39.6161 116.9 39.5328C117.052 39.4476 117.165 39.3305 117.239 39.1814C117.314 39.0303 117.352 38.857 117.352 38.6614C117.352 38.4639 117.314 38.2916 117.239 38.1444C117.165 37.9953 117.052 37.8801 116.9 37.7988C116.749 37.7155 116.557 37.6739 116.324 37.6739H115.515V42.5942H114.315Z" fill="#FD7E14"/>
<path d="M124.584 39.6199C124.584 40.2686 124.467 40.8205 124.232 41.2755C123.999 41.7306 123.681 42.0782 123.278 42.3183C122.878 42.5564 122.427 42.6755 121.926 42.6755C121.422 42.6755 120.969 42.5555 120.568 42.3154C120.167 42.0753 119.85 41.7277 119.617 41.2726C119.384 40.8176 119.268 40.2667 119.268 39.6199C119.268 38.9713 119.384 38.4194 119.617 37.9644C119.85 37.5093 120.167 37.1627 120.568 36.9245C120.969 36.6844 121.422 36.5644 121.926 36.5644C122.427 36.5644 122.878 36.6844 123.278 36.9245C123.681 37.1627 123.999 37.5093 124.232 37.9644C124.467 38.4194 124.584 38.9713 124.584 39.6199ZM123.367 39.6199C123.367 39.1998 123.307 38.8454 123.187 38.5569C123.069 38.2684 122.902 38.0496 122.685 37.9005C122.469 37.7514 122.216 37.6768 121.926 37.6768C121.636 37.6768 121.383 37.7514 121.167 37.9005C120.95 38.0496 120.782 38.2684 120.662 38.5569C120.544 38.8454 120.485 39.1998 120.485 39.6199C120.485 40.0401 120.544 40.3945 120.662 40.683C120.782 40.9715 120.95 41.1903 121.167 41.3394C121.383 41.4885 121.636 41.5631 121.926 41.5631C122.216 41.5631 122.469 41.4885 122.685 41.3394C122.902 41.1903 123.069 40.9715 123.187 40.683C123.307 40.3945 123.367 40.0401 123.367 39.6199Z" fill="#FD7E14"/>
<path d="M124.998 37.6826V36.6457H129.659V37.6826H127.922V42.5942H126.735V37.6826H124.998Z" fill="#FD7E14"/>
<path d="M130.712 42.5942H129.426L131.385 36.6457H132.932L134.889 42.5942H133.603L132.181 38.005H132.136L130.712 42.5942ZM130.631 40.256H133.669V41.2378H130.631V40.256Z" fill="#FD7E14"/>
<defs>
<linearGradient id="paint0_linear_11424_5703" x1="47.7929" y1="32.3596" x2="54.1552" y2="17.5174" gradientUnits="userSpaceOnUse">
<stop stop-color="white"/>
<stop offset="1" stop-color="#DBD8D8"/>
</linearGradient>
</defs>
</svg>
