<svg width="732" height="223" viewBox="0 0 732 223" fill="none" xmlns="http://www.w3.org/2000/svg">
<path d="M255.676 222C253.033 222 250.681 221.217 248.62 219.651C246.559 218.068 244.94 215.858 243.764 213.022C242.588 210.168 242 206.828 242 203C242 199.172 242.588 195.84 243.764 193.004C244.94 190.151 246.559 187.941 248.62 186.375C250.681 184.792 253.033 184 255.676 184C258.319 184 260.671 184.792 262.732 186.375C264.793 187.941 266.412 190.151 267.588 193.004C268.764 195.84 269.352 199.172 269.352 203C269.352 206.828 268.764 210.168 267.588 213.022C266.412 215.858 264.793 218.068 262.732 219.651C260.671 221.217 258.319 222 255.676 222ZM255.676 215.527C257.526 215.527 259.072 214.988 260.314 213.909C261.556 212.831 262.488 211.352 263.109 209.473C263.73 207.576 264.04 205.418 264.04 203C264.04 200.582 263.73 198.433 263.109 196.554C262.488 194.657 261.556 193.169 260.314 192.091C259.072 191.012 257.526 190.473 255.676 190.473C253.826 190.473 252.28 191.012 251.038 192.091C249.796 193.169 248.864 194.657 248.243 196.554C247.622 198.433 247.312 200.582 247.312 203C247.312 205.418 247.622 207.576 248.243 209.473C248.864 211.352 249.796 212.831 251.038 213.909C252.28 214.988 253.826 215.527 255.676 215.527Z" fill="#FD7E14"/>
<path d="M273.782 221.269V184.731H278.777L290.63 208.324V184.731H295.704V221.269H291.541L278.856 196.214V221.269H273.782Z" fill="#FD7E14"/>
<path d="M301.81 221.269V184.731H306.884V215.319H318.3V221.269H301.81Z" fill="#FD7E14"/>
<path d="M321.63 221.269V184.731H326.704V221.269H321.63Z" fill="#FD7E14"/>
<path d="M332.817 221.269V184.731H337.812L349.665 208.324V184.731H354.739V221.269H350.576L337.891 196.214V221.269H332.817Z" fill="#FD7E14"/>
<path d="M360.845 221.269V184.731H378.604V191.203H366.038V198.981H375.789V205.453H366.038V214.797H379V221.269H360.845Z" fill="#FD7E14"/>
<path d="M107 117.745V111.694L216.008 85V131.99C216.008 157.836 215.712 178.982 215.349 178.982C214.676 178.982 192.391 167.808 175.263 158.884C170.024 156.154 152.522 147.143 136.369 138.858L121.684 131.328L107 123.797V117.745Z" fill="url(#paint0_linear_1111_24)"/>
<path d="M123.279 24.3145C161.309 14.4952 196.592 5.1878 207.417 2.11885C211.2 1.04615 214.534 0.0930013 214.825 0.000964817C215.665 -0.264566 324.682 54.366 324.792 55.1076C324.847 55.4747 322.867 56.303 320.394 56.9483C317.92 57.5936 304.942 60.9874 291.554 64.49C278.166 67.9917 257.926 73.2536 246.575 76.1818C235.224 79.1111 223.676 82.2383 220.91 83.1333L215.883 84.7603L106.875 111.454L83.0591 99.6088C69.9611 93.0943 58.8878 87.7636 58.4528 87.7626C58.0179 87.7626 57.7946 102.996 57.9554 121.615C58.1787 147.396 57.9459 155.469 56.9796 155.469C56.2811 155.469 53.8988 154.635 51.6858 153.617L47.6631 151.766L47.6356 117.182C47.6208 98.1615 48.024 82.3419 48.532 82.0278C49.0411 81.7136 58.9227 79.0054 70.4924 76.0094C95.7633 69.4642 116.462 64.0912 138.904 58.2527C148.08 55.865 155.819 53.9111 156.102 53.9111C156.385 53.9111 156.616 53.5165 156.616 53.0341C156.616 52.5517 154.244 51.0463 151.343 49.688C145.082 46.7566 147.034 46.435 108.62 56.7251C94.5632 60.4902 74.966 65.6611 65.0706 68.2138C55.1752 70.7676 44.6977 73.608 41.7873 74.5263L36.4956 76.1945L18.2563 66.9041C8.22433 61.7945 0.00848952 57.3482 2.28492e-05 57.0235C-0.00950215 56.6987 2.96018 55.6863 6.59767 54.7733C16.4074 52.3126 64.2726 39.8369 87.2956 33.7392C98.3552 30.8099 114.548 26.5689 123.279 24.3145Z" fill="white"/>
<path d="M286.019 157.489H257.735V144.104H286.019V157.489ZM270.284 108.611H273.469L253.97 177.327H242L266.036 93.6731H277.717L301.753 177.327H289.783L270.284 108.611Z" fill="white"/>
<path d="M309.476 177.327V93.6731H333.512C338.693 93.6731 343.069 94.6291 346.641 96.5412C350.212 98.4533 352.915 101.401 354.749 105.385C356.616 109.368 357.549 114.467 357.549 120.681C357.549 126.975 356.632 132.174 354.798 136.277C352.963 140.34 350.277 143.367 346.737 145.359C343.198 147.311 338.886 148.287 333.802 148.287H321.832V177.327H309.476ZM321.832 135.5H332.354C336.569 135.5 339.723 134.325 341.814 131.975C343.938 129.624 345 125.94 345 120.92C345 115.901 343.922 112.236 341.766 109.926C339.642 107.615 336.408 106.46 332.064 106.46H321.832V135.5Z" fill="white"/>
<path d="M366.98 177.327V93.6731H391.017C396.197 93.6731 400.573 94.6291 404.145 96.5412C407.717 98.4533 410.42 101.401 412.254 105.385C414.12 109.368 415.053 114.467 415.053 120.681C415.053 126.975 414.136 132.174 412.302 136.277C410.468 140.34 407.781 143.367 404.242 145.359C400.702 147.311 396.39 148.287 391.306 148.287H379.336V177.327H366.98ZM379.336 135.5H389.858C394.074 135.5 397.227 134.325 399.318 131.975C401.442 129.624 402.504 125.94 402.504 120.92C402.504 115.901 401.426 112.236 399.27 109.926C397.146 107.615 393.913 106.46 389.569 106.46H379.336V135.5Z" fill="white"/>
<path d="M424.485 177.327V93.6731H436.841V163.703H464.642V177.327H424.485Z" fill="white"/>
<path d="M472.751 177.327V93.6731H485.107V177.327H472.751Z" fill="white"/>
<path d="M530.595 179C523.741 179 517.708 177.207 512.495 173.622C507.283 169.997 503.212 164.938 500.284 158.445C497.388 151.912 495.94 144.264 495.94 135.5C495.94 126.736 497.436 119.108 500.429 112.615C503.454 106.082 507.604 101.023 512.881 97.4375C518.159 93.8125 524.192 92 530.981 92C534.553 92 537.819 92.478 540.779 93.4341C543.74 94.3503 546.298 95.5055 548.454 96.8997L547.102 111.479C544.657 110.085 542.131 108.95 539.524 108.073C536.95 107.157 534.07 106.699 530.885 106.699C526.155 106.699 522.197 107.934 519.011 110.404C515.858 112.874 513.477 116.28 511.868 120.622C510.259 124.964 509.455 129.923 509.455 135.5C509.455 141.077 510.243 146.036 511.82 150.378C513.396 154.72 515.745 158.126 518.866 160.596C522.02 163.066 525.929 164.301 530.595 164.301C533.845 164.301 536.757 163.863 539.331 162.986C541.905 162.11 544.496 160.955 547.102 159.521L548.454 174.1C545.912 175.574 543.112 176.749 540.055 177.626C537.031 178.542 533.877 179 530.595 179Z" fill="white"/>
<path d="M595.694 157.489H567.41V144.104H595.694V157.489ZM579.959 108.611H583.145L563.645 177.327H551.675L575.712 93.6731H587.392L611.429 177.327H599.459L579.959 108.611Z" fill="white"/>
<path d="M619.151 177.327V93.6731H631.314L660.177 147.69V93.6731H672.533V177.327H662.397L631.507 119.964V177.327H619.151Z" fill="white"/>
<path d="M700.531 177.327V108.492H681.417V93.6731H732V108.492H712.887V177.327H700.531Z" fill="white"/>
<path fill-rule="evenodd" clip-rule="evenodd" d="M109.129 132.605C109.197 135.517 109.257 136.061 109.537 136.282C109.718 136.425 113.002 138.163 116.836 140.143C120.67 142.123 123.998 143.929 124.231 144.155C125.174 145.069 125.308 145.628 125.334 148.723C125.353 151.164 125.305 151.715 125.039 152.104C124.865 152.36 124.616 152.57 124.486 152.571C124.356 152.572 121.586 151.189 118.33 149.497C112.852 146.652 112.334 146.422 111.391 146.419C109.576 146.412 108.515 147.421 107.704 149.925C107.37 150.954 107.331 151.704 107.297 157.646C107.277 161.266 107.311 164.683 107.374 165.24L107.488 166.252L118.824 172.158L130.161 178.063L130.138 174.687C130.118 171.649 130.079 171.283 129.757 171.042C129.559 170.894 125.462 168.724 120.651 166.219L111.903 161.664L111.794 160.857C111.733 160.413 111.734 158.765 111.794 157.195C111.909 154.195 112.052 153.712 112.818 153.723C113.024 153.726 115.701 155.047 118.764 156.657C124.624 159.738 125.515 160.07 126.827 159.663C127.886 159.334 128.564 158.679 129.199 157.367L129.777 156.176L129.841 151.98C129.893 148.563 129.842 147.499 129.57 146.253C128.838 142.907 127.168 139.67 125.329 138.038C124.693 137.472 121.949 135.93 116.722 133.197L109.05 129.187L109.129 132.605ZM139.422 146.953C137.119 147.729 135.6 149.582 134.618 152.816C134.347 153.706 134.238 154.987 134.117 158.671C133.891 165.585 134.21 168.866 135.504 172.932C137.142 178.078 140.275 182.778 143.454 184.859C144.066 185.26 146.682 186.694 149.266 188.045L153.964 190.501L155.756 190.528C157.153 190.55 157.717 190.475 158.322 190.19C159.512 189.629 160.715 188.346 161.468 186.834C162.799 184.161 163.102 181.636 162.923 174.709C162.788 169.466 162.405 167.019 161.188 163.618C159.644 159.301 157.002 155.22 154.448 153.205C153.244 152.254 144.75 147.713 143.058 147.115C141.804 146.672 140.436 146.611 139.422 146.953ZM148.398 156.603C153.963 159.503 154.702 160.07 156.122 162.528C157.891 165.589 158.311 167.671 158.392 173.781C158.459 178.869 158.322 180.01 157.442 181.683C156.752 182.995 155.617 183.647 154.343 183.465C153.365 183.326 144.44 178.773 143.257 177.81C141.564 176.432 139.992 173.731 139.164 170.777C138.742 169.272 138.681 168.596 138.595 164.418C138.535 161.489 138.576 159.252 138.705 158.43C139.165 155.508 140.481 153.957 142.477 153.986C143.283 153.997 144.045 154.334 148.398 156.603ZM168.639 163.715L168.587 167.132L175.986 171C180.056 173.126 183.544 175.011 183.738 175.188C184.587 175.96 184.856 176.941 184.912 179.461C184.976 182.401 184.841 183.191 184.229 183.457C183.834 183.628 183.029 183.262 177.853 180.563C172.592 177.818 171.824 177.471 170.983 177.458C169.413 177.434 168.378 178.155 167.647 179.782C166.856 181.539 166.763 182.669 166.796 190.13L166.827 197.195L178.207 203.124C184.466 206.385 189.617 209.025 189.653 208.991C189.689 208.956 189.673 207.403 189.616 205.54L189.514 202.152L180.444 197.413L171.373 192.674L171.374 189.166C171.375 186.26 171.427 185.581 171.679 185.212C171.847 184.967 172.117 184.769 172.281 184.771C172.444 184.774 175.143 186.1 178.278 187.719C181.414 189.338 184.314 190.721 184.723 190.793C186.468 191.096 188.208 189.921 188.97 187.924C189.411 186.767 189.656 182.099 189.403 179.66C188.908 174.893 186.985 170.681 184.411 168.723C183.905 168.338 180.161 166.285 176.091 164.16L168.691 160.298L168.639 163.715ZM195.407 174.33C195.363 174.372 195.329 175.912 195.332 177.751L195.338 181.095L202.729 184.953C206.794 187.076 210.283 188.958 210.48 189.136C211.239 189.82 211.538 190.971 211.622 193.528C211.708 196.139 211.505 197.241 210.893 197.477C210.672 197.562 208.623 196.601 204.644 194.544C201.388 192.861 198.45 191.429 198.116 191.361C196.524 191.037 194.994 192.129 194.152 194.189C193.571 195.609 193.418 198.32 193.499 205.774L193.557 211.144L204.88 217.035C211.107 220.275 216.233 222.884 216.271 222.832C216.309 222.78 216.32 221.243 216.294 219.415L216.249 216.093L207.274 211.413C202.337 208.838 198.238 206.708 198.164 206.679C198.09 206.649 198.029 205.037 198.029 203.096C198.029 199.299 198.154 198.71 198.955 198.722C199.189 198.726 201.83 200.004 204.824 201.564C210.782 204.666 211.586 204.977 212.835 204.664C215.334 204.038 216.358 201.353 216.181 195.89C215.993 190.055 214.688 186.294 211.829 183.342C211.022 182.51 210.203 181.975 207.938 180.799C206.36 179.98 202.913 178.172 200.278 176.781C197.643 175.391 195.452 174.288 195.407 174.33Z" fill="white"/>
<defs>
<linearGradient id="paint0_linear_1111_24" x1="211" y1="143" x2="238" y2="77.5" gradientUnits="userSpaceOnUse">
<stop stop-color="white"/>
<stop offset="1" stop-color="#DBD8D8"/>
</linearGradient>
</defs>
</svg>
