<svg width="44" height="48" viewBox="0 0 44 48" fill="none" xmlns="http://www.w3.org/2000/svg">
<path d="M28.6738 10.1865C23.6507 14.0714 21.183 20.9306 19.8014 25.1057C20.2966 21.9784 20.7438 18.2546 16.8387 14.7485C14.4988 17.5373 14.0995 22.059 15.7206 25.4362C14.7144 24.3078 12.0231 21.8172 7.93432 21.0192C5.96978 20.6324 3.51011 20.7291 1.06641 21.5432C3.73371 13.6926 11.1047 8.05859 19.7855 8.05859C22.9878 8.05859 26.0065 8.8243 28.6738 10.1865Z" fill="#234182"/>
<path d="M39.5762 28.0286C39.5762 39.0628 30.7198 48.0015 19.7871 48.0015C16.6566 48.0015 13.6938 47.268 11.0664 45.9623C15.2031 44.3664 19.8749 41.1262 23.1571 30.4869C26.2796 20.3876 28.0685 15.0276 31.0233 11.5859C36.1902 15.1888 39.5762 21.2097 39.5762 28.0286Z" fill="#234182"/>
<path d="M13.6879 34.8959C13.6879 38.9018 11.4598 42.3838 8.16164 44.1892C3.21834 40.5622 0 34.6783 0 28.0287C0 26.8761 0.0958314 25.7477 0.287494 24.6435C1.15796 24.4178 2.07635 24.2969 3.01869 24.2969C8.91232 24.2969 13.6879 29.0443 13.6879 34.8959Z" fill="#234182"/>
<path d="M43.2008 0C43.2008 0.691568 40.2926 4.4397 35.2385 5.60939C31.9161 6.3778 30.1679 7.41942 28.8008 7.99999C29.3559 6.59124 31.6924 3.47492 35.0065 2.48452C39.1492 1.25507 41.378 0.930629 43.2008 0Z" fill="#234182"/>
</svg>
