<svg width="45" height="50" viewBox="0 0 45 50" fill="none" xmlns="http://www.w3.org/2000/svg">
  <path d="M29.9303 10.8936C24.6878 14.9109 22.1123 22.0038 20.6704 26.3212C21.1872 23.0873 21.6539 19.2367 17.5782 15.6111C15.1362 18.4949 14.7194 23.1706 16.4114 26.6629C15.3612 25.496 12.5524 22.9206 8.28504 22.0955C6.2347 21.6954 3.66761 21.7954 1.11719 22.6372C3.90098 14.5192 11.5939 8.69325 20.6538 8.69325C23.996 8.69325 27.1465 9.48505 29.9303 10.8936Z" fill="#0C3B98"/>
  <path d="M41.3067 29.3466C41.3067 40.7568 32.0635 50 20.6533 50C17.3861 50 14.2939 49.2415 11.5518 47.8913C15.8691 46.241 20.7449 42.8905 24.1705 31.8887C27.4294 21.4453 29.2964 15.9027 32.3802 12.3438C37.7728 16.0694 41.3067 22.2954 41.3067 29.3466Z" fill="#0C3B98"/>
  <path d="M14.2857 36.4478C14.2857 40.5901 11.9603 44.1907 8.51808 46.0577C3.35889 42.3071 0 36.2227 0 29.3466C0 28.1547 0.100017 26.9879 0.30005 25.846C1.20853 25.6126 2.16703 25.4876 3.15052 25.4876C9.30154 25.4876 14.2857 30.3968 14.2857 36.4478Z" fill="#0C3B98"/>
  <path d="M44.6986 0C44.6986 0.675112 41.7731 4.33405 36.689 5.47591C33.3467 6.22603 31.5881 7.24287 30.2129 7.80963C30.7713 6.4344 33.1217 3.39223 36.4556 2.4254C40.6229 1.2252 42.865 0.908484 44.6986 0Z" fill="#FE0304"/>
</svg>