<svg width="733" height="223" viewBox="0 0 733 223" fill="none" xmlns="http://www.w3.org/2000/svg">
<path fill-rule="evenodd" clip-rule="evenodd" d="M265.289 91.2736C264.341 93.5121 260.042 108.706 250.997 141.788C248.848 149.643 245.945 160.096 244.545 165.016C243.145 169.936 242 174.366 242 174.86C242 175.353 244.238 175.611 246.974 175.434L251.948 175.111L255.011 165.326L258.075 155.54H268.029C273.503 155.54 278.34 155.494 278.777 155.438C279.562 155.335 282.067 162.443 284.313 171.144L285.473 175.64H290.725C293.612 175.64 295.963 175.283 295.95 174.847C295.915 173.724 285.145 134.444 274.232 95.63C273.093 91.5814 272.098 90.039 270.317 89.5619C266.703 88.5939 266.377 88.704 265.289 91.2736ZM302.325 132.796V175.64H318.043C332.653 175.64 334.015 175.47 337.343 173.228C343.037 169.392 343.567 167.349 343.581 149.193C343.59 134.806 343.34 132.382 341.536 129.425C338.435 124.342 335.691 123.327 323.492 122.746L312.379 122.217L312.078 111.373L311.776 100.53H327.159H342.542V95.2407V89.9512H322.433H302.325V132.796ZM349.95 132.738V175.64H354.474H358.999L366.077 157.921C369.969 148.174 374.82 136.155 376.854 131.209L380.553 122.217L380.597 148.929L380.642 175.64H385.933H391.225V132.796V89.9512H386.954C382.127 89.9512 382.375 89.5566 374.274 110.051C372.089 115.579 368.222 125.203 365.682 131.438L361.063 142.776L360.533 116.628L360.004 90.4802L354.977 90.1575L349.95 89.8349V132.738ZM396.517 95.2407V100.53H404.454H412.392V138.085V175.64H417.683H422.975V138.085V100.53H430.383H437.792V95.2407V89.9512H417.154H396.517V95.2407ZM444.686 91.8026C445.11 92.8213 446.304 95.796 447.338 98.4143C448.373 101.033 450.405 106.031 451.854 109.522C453.304 113.013 456.216 120.08 458.327 125.227C460.439 130.373 462.633 135.455 463.203 136.521C463.979 137.969 463.297 140.948 460.504 148.321C458.449 153.746 456.053 159.722 455.178 161.601C453.236 165.774 450.492 173.454 450.492 174.716C450.492 175.225 452.754 175.64 455.519 175.64H460.547L464.138 166.913C466.113 162.113 471.421 149.14 475.934 138.085C480.447 127.03 486.57 112.06 489.541 104.818C492.511 97.5754 494.941 91.2673 494.941 90.8007C494.941 90.3331 492.605 89.9512 489.749 89.9512H484.557L479.57 101.852C476.828 108.399 473.63 116.015 472.462 118.779C471.294 121.542 470.041 123.793 469.676 123.78C469.311 123.767 467.378 119.602 465.381 114.524C463.384 109.445 460.182 101.839 458.264 97.6209L454.778 89.9512H449.347C444.586 89.9512 444.01 90.1798 444.686 91.8026ZM501.775 91.2757C501.495 92.0046 501.391 111.166 501.543 133.856L501.821 175.111L506.848 175.434L511.875 175.757V154.541V133.325H521.982C532.887 133.325 536.111 132.31 540.185 127.599C542.371 125.072 542.567 123.796 542.567 112.09C542.567 97.3776 541.57 94.4388 535.47 91.1763C532.162 89.4064 502.459 89.4942 501.775 91.2757ZM548.917 132.796V175.64H553.113C556.184 175.64 557.603 175.089 558.409 173.585C559.508 171.531 571.859 141.321 575.328 132.201C579.417 121.451 579.543 121.962 579.576 149.458L579.608 175.64H584.9H590.192V132.735V89.8295L585.725 90.1554L581.259 90.4802L576.694 101.588C574.182 107.697 569.405 119.514 566.078 127.847L560.029 142.999L559.453 116.739C559.137 102.297 558.779 90.3617 558.66 90.2157C558.54 90.0697 556.298 89.9512 553.679 89.9512H548.917V132.796ZM595.483 132.796V175.64H616.121H636.758V170.351V165.061H621.412H606.067V149.193V133.325H613.889H621.71L622.196 129.358C622.964 123.076 622.549 122.746 613.891 122.746H606.067V111.638V100.53H621.412H636.758V95.2407V89.9512H616.121H595.483V132.796ZM643.814 90.6568C643.426 91.044 643.108 110.324 643.108 133.501V175.64H648.4H653.692V154.482V133.325H663.746H673.8V154.482V175.64H679.092H684.383V132.738V89.8349L679.356 90.1575L674.329 90.4802L674.037 106.613L673.745 122.746H663.718H653.692V106.348V89.9512H649.106C646.583 89.9512 644.201 90.2686 643.814 90.6568ZM690.733 95.2407V100.53H698.128H705.522L705.801 137.821L706.079 175.111L711.106 175.434L716.133 175.757V138.143V100.53H724.071H732.008V95.2407V89.9512H711.371H690.733V95.2407ZM531.983 111.638V122.746H521.929H511.875V111.638V100.53H521.929H531.983V111.638ZM271.968 125.391C272.93 128.882 274.441 134.331 275.326 137.499C276.217 140.693 276.53 143.663 276.029 144.165C275.53 144.663 272.076 144.927 268.35 144.752C262.264 144.464 261.612 144.219 261.899 142.317C262.689 137.091 268.89 117.478 269.518 118.218C269.902 118.672 271.005 121.899 271.968 125.391ZM333.017 149.193V165.061H322.963H312.908V149.193V133.325H322.963H333.017V149.193Z" fill="white"/>
<path d="M255.676 222C253.033 222 250.681 221.217 248.62 219.651C246.559 218.068 244.94 215.858 243.764 213.022C242.588 210.168 242 206.828 242 203C242 199.172 242.588 195.84 243.764 193.004C244.94 190.151 246.559 187.941 248.62 186.375C250.681 184.792 253.033 184 255.676 184C258.319 184 260.671 184.792 262.732 186.375C264.793 187.941 266.412 190.151 267.588 193.004C268.764 195.84 269.352 199.172 269.352 203C269.352 206.828 268.764 210.168 267.588 213.022C266.412 215.858 264.793 218.068 262.732 219.651C260.671 221.217 258.319 222 255.676 222ZM255.676 215.527C257.526 215.527 259.072 214.988 260.314 213.909C261.556 212.831 262.488 211.352 263.109 209.473C263.73 207.576 264.04 205.418 264.04 203C264.04 200.582 263.73 198.433 263.109 196.554C262.488 194.657 261.556 193.169 260.314 192.091C259.072 191.012 257.526 190.473 255.676 190.473C253.826 190.473 252.28 191.012 251.038 192.091C249.796 193.169 248.864 194.657 248.243 196.554C247.622 198.433 247.312 200.582 247.312 203C247.312 205.418 247.622 207.576 248.243 209.473C248.864 211.352 249.796 212.831 251.038 213.909C252.28 214.988 253.826 215.527 255.676 215.527Z" fill="#FD7E14"/>
<path d="M273.782 221.269V184.731H278.777L290.63 208.324V184.731H295.704V221.269H291.541L278.856 196.214V221.269H273.782Z" fill="#FD7E14"/>
<path d="M301.81 221.269V184.731H306.884V215.319H318.3V221.269H301.81Z" fill="#FD7E14"/>
<path d="M321.63 221.269V184.731H326.704V221.269H321.63Z" fill="#FD7E14"/>
<path d="M332.817 221.269V184.731H337.812L349.665 208.324V184.731H354.739V221.269H350.576L337.891 196.214V221.269H332.817Z" fill="#FD7E14"/>
<path d="M360.845 221.269V184.731H378.604V191.203H366.038V198.981H375.789V205.453H366.038V214.797H379V221.269H360.845Z" fill="#FD7E14"/>
<path d="M107 117.745V111.694L216.008 85V131.99C216.008 157.836 215.712 178.982 215.349 178.982C214.676 178.982 192.391 167.808 175.263 158.884C170.024 156.154 152.522 147.143 136.369 138.858L121.684 131.328L107 123.797V117.745Z" fill="url(#paint0_linear_1111_25)"/>
<path d="M123.279 24.3145C161.309 14.4952 196.592 5.1878 207.417 2.11885C211.2 1.04615 214.534 0.0930013 214.825 0.000964817C215.665 -0.264566 324.682 54.366 324.792 55.1076C324.847 55.4747 322.867 56.303 320.394 56.9483C317.92 57.5936 304.942 60.9874 291.554 64.49C278.166 67.9917 257.926 73.2536 246.575 76.1818C235.224 79.1111 223.676 82.2383 220.91 83.1333L215.883 84.7603L106.875 111.454L83.0591 99.6088C69.9611 93.0943 58.8878 87.7636 58.4528 87.7626C58.0179 87.7626 57.7946 102.996 57.9554 121.615C58.1787 147.396 57.9459 155.469 56.9796 155.469C56.2811 155.469 53.8988 154.635 51.6858 153.617L47.6631 151.766L47.6356 117.182C47.6208 98.1615 48.024 82.3419 48.532 82.0278C49.0411 81.7136 58.9227 79.0054 70.4924 76.0094C95.7633 69.4642 116.462 64.0912 138.904 58.2527C148.08 55.865 155.819 53.9111 156.102 53.9111C156.385 53.9111 156.616 53.5165 156.616 53.0341C156.616 52.5517 154.244 51.0463 151.343 49.688C145.082 46.7566 147.034 46.435 108.62 56.7251C94.5632 60.4902 74.966 65.6611 65.0706 68.2138C55.1752 70.7676 44.6977 73.608 41.7873 74.5263L36.4956 76.1945L18.2563 66.9041C8.22433 61.7945 0.00848952 57.3482 2.28492e-05 57.0235C-0.00950215 56.6987 2.96018 55.6863 6.59767 54.7733C16.4074 52.3126 64.2726 39.8369 87.2956 33.7392C98.3552 30.8099 114.548 26.5689 123.279 24.3145Z" fill="white"/>
<path fill-rule="evenodd" clip-rule="evenodd" d="M109.129 132.605C109.197 135.517 109.257 136.061 109.537 136.282C109.718 136.425 113.002 138.163 116.836 140.143C120.67 142.123 123.998 143.929 124.231 144.155C125.174 145.069 125.308 145.628 125.334 148.723C125.353 151.164 125.305 151.715 125.039 152.104C124.865 152.36 124.616 152.57 124.486 152.571C124.356 152.572 121.586 151.189 118.33 149.497C112.852 146.652 112.334 146.422 111.391 146.419C109.576 146.412 108.515 147.421 107.704 149.925C107.37 150.954 107.331 151.704 107.297 157.646C107.277 161.266 107.311 164.683 107.374 165.24L107.488 166.252L118.824 172.158L130.161 178.063L130.138 174.687C130.118 171.649 130.079 171.283 129.757 171.042C129.559 170.894 125.462 168.724 120.651 166.219L111.903 161.664L111.794 160.857C111.733 160.413 111.734 158.765 111.794 157.195C111.909 154.195 112.052 153.712 112.818 153.723C113.024 153.726 115.701 155.047 118.764 156.657C124.624 159.738 125.515 160.07 126.827 159.663C127.886 159.334 128.564 158.679 129.199 157.367L129.777 156.176L129.841 151.98C129.893 148.563 129.842 147.499 129.57 146.253C128.838 142.907 127.168 139.67 125.329 138.038C124.693 137.472 121.949 135.93 116.722 133.197L109.05 129.187L109.129 132.605ZM139.422 146.953C137.119 147.729 135.6 149.582 134.618 152.816C134.347 153.706 134.238 154.987 134.117 158.671C133.891 165.585 134.21 168.866 135.504 172.932C137.142 178.078 140.275 182.778 143.454 184.859C144.066 185.26 146.682 186.694 149.266 188.045L153.964 190.501L155.756 190.528C157.153 190.55 157.717 190.475 158.322 190.19C159.512 189.629 160.715 188.346 161.468 186.834C162.799 184.161 163.102 181.636 162.923 174.709C162.788 169.466 162.405 167.019 161.188 163.618C159.644 159.301 157.002 155.22 154.448 153.205C153.244 152.254 144.75 147.713 143.058 147.115C141.804 146.672 140.436 146.611 139.422 146.953ZM148.398 156.603C153.963 159.503 154.702 160.07 156.122 162.528C157.891 165.589 158.311 167.671 158.392 173.781C158.459 178.869 158.322 180.01 157.442 181.683C156.752 182.995 155.617 183.647 154.343 183.465C153.365 183.326 144.44 178.773 143.257 177.81C141.564 176.432 139.992 173.731 139.164 170.777C138.742 169.272 138.681 168.596 138.595 164.418C138.535 161.489 138.576 159.252 138.705 158.43C139.165 155.508 140.481 153.957 142.477 153.986C143.283 153.997 144.045 154.334 148.398 156.603ZM168.639 163.715L168.587 167.132L175.986 171C180.056 173.126 183.544 175.011 183.738 175.188C184.587 175.96 184.856 176.941 184.912 179.461C184.976 182.401 184.841 183.191 184.229 183.457C183.834 183.628 183.029 183.262 177.853 180.563C172.592 177.818 171.824 177.471 170.983 177.458C169.413 177.434 168.378 178.155 167.647 179.782C166.856 181.539 166.763 182.669 166.796 190.13L166.827 197.195L178.207 203.124C184.466 206.385 189.617 209.025 189.653 208.991C189.689 208.956 189.673 207.403 189.616 205.54L189.514 202.152L180.444 197.413L171.373 192.674L171.374 189.166C171.375 186.26 171.427 185.581 171.679 185.212C171.847 184.967 172.117 184.769 172.281 184.771C172.444 184.774 175.143 186.1 178.278 187.719C181.414 189.338 184.314 190.721 184.723 190.793C186.468 191.096 188.208 189.921 188.97 187.924C189.411 186.767 189.656 182.099 189.403 179.66C188.908 174.893 186.985 170.681 184.411 168.723C183.905 168.338 180.161 166.285 176.091 164.16L168.691 160.298L168.639 163.715ZM195.407 174.33C195.363 174.372 195.329 175.912 195.332 177.751L195.338 181.095L202.729 184.953C206.794 187.076 210.283 188.958 210.48 189.136C211.239 189.82 211.538 190.971 211.622 193.528C211.708 196.139 211.505 197.241 210.893 197.477C210.672 197.562 208.623 196.601 204.644 194.544C201.388 192.861 198.45 191.429 198.116 191.361C196.524 191.037 194.994 192.129 194.152 194.189C193.571 195.609 193.418 198.32 193.499 205.774L193.557 211.144L204.88 217.035C211.107 220.275 216.233 222.884 216.271 222.832C216.309 222.78 216.32 221.243 216.294 219.415L216.249 216.093L207.274 211.413C202.337 208.838 198.238 206.708 198.164 206.679C198.09 206.649 198.029 205.037 198.029 203.096C198.029 199.299 198.154 198.71 198.955 198.722C199.189 198.726 201.83 200.004 204.824 201.564C210.782 204.666 211.586 204.977 212.835 204.664C215.334 204.038 216.358 201.353 216.181 195.89C215.993 190.055 214.688 186.294 211.829 183.342C211.022 182.51 210.203 181.975 207.938 180.799C206.36 179.98 202.913 178.172 200.278 176.781C197.643 175.391 195.452 174.288 195.407 174.33Z" fill="white"/>
<defs>
<linearGradient id="paint0_linear_1111_25" x1="211" y1="143" x2="238" y2="77.5" gradientUnits="userSpaceOnUse">
<stop stop-color="white"/>
<stop offset="1" stop-color="#DBD8D8"/>
</linearGradient>
</defs>
</svg>
