<svg width="144" height="44" viewBox="0 0 144 44" fill="none" xmlns="http://www.w3.org/2000/svg">
<g clip-path="url(#clip0_10703_667)">
<path d="M50.2969 43.8027C49.777 43.8027 49.3143 43.6482 48.9088 43.3392C48.5034 43.0269 48.1849 42.5908 47.9536 42.0312C47.7222 41.4681 47.6066 40.8091 47.6066 40.0538C47.6066 39.2985 47.7222 38.6411 47.9536 38.0815C48.1849 37.5186 48.5034 37.0825 48.9088 36.7735C49.3143 36.4612 49.777 36.3049 50.2969 36.3049C50.8168 36.3049 51.2795 36.4612 51.685 36.7735C52.0904 37.0825 52.4089 37.5186 52.6403 38.0815C52.8716 38.6411 52.9873 39.2985 52.9873 40.0538C52.9873 40.8091 52.8716 41.4681 52.6403 42.0312C52.4089 42.5908 52.0904 43.0269 51.685 43.3392C51.2795 43.6482 50.8168 43.8027 50.2969 43.8027ZM50.2969 42.5255C50.6608 42.5255 50.965 42.4192 51.2093 42.2063C51.4536 41.9936 51.637 41.7017 51.7591 41.331C51.8813 40.9567 51.9423 40.5309 51.9423 40.0538C51.9423 39.5767 51.8813 39.1527 51.7591 38.782C51.637 38.4077 51.4536 38.1141 51.2093 37.9014C50.965 37.6885 50.6608 37.5821 50.2969 37.5821C49.933 37.5821 49.6288 37.6885 49.3845 37.9014C49.1402 38.1141 48.9568 38.4077 48.8347 38.782C48.7125 39.1527 48.6515 39.5767 48.6515 40.0538C48.6515 40.5309 48.7125 40.9567 48.8347 41.331C48.9568 41.7017 49.1402 41.9936 49.3845 42.2063C49.6288 42.4192 49.933 42.5255 50.2969 42.5255Z" fill="#FD7E14"/>
<path d="M53.8588 43.6584V36.4492H54.8414L57.1731 41.1043V36.4492H58.1713V43.6584H57.3523L54.8569 38.7149V43.6584H53.8588Z" fill="#FD7E14"/>
<path d="M59.3725 43.6584V36.4492H60.3706V42.4845H62.6164V43.6584H59.3725Z" fill="#FD7E14"/>
<path d="M63.2715 43.6584V36.4492H64.2696V43.6584H63.2715Z" fill="#FD7E14"/>
<path d="M65.4722 43.6584V36.4492H66.4548L68.7866 41.1043V36.4492H69.7847V43.6584H68.9658L66.4704 38.7149V43.6584H65.4722Z" fill="#FD7E14"/>
<path d="M70.9859 43.6584V36.4492H74.4795V37.7261H72.0075V39.2608H73.9257V40.5378H72.0075V42.3815H74.5574V43.6584H70.9859Z" fill="#FD7E14"/>
<path d="M21.0492 23.2322V22.0383L42.4934 16.7713V26.0429C42.4934 31.1425 42.4351 35.3148 42.3637 35.3148C42.2313 35.3148 37.8474 33.1101 34.478 31.3493C33.4473 30.8107 30.0043 29.0327 26.8267 27.398L23.9378 25.9123L21.0492 24.4263V23.2322Z" fill="#1567DA"/>
<path d="M21.0492 23.2322V22.0383L42.4934 16.7713V26.0429C42.4934 31.1425 42.4351 35.3148 42.3637 35.3148C42.2313 35.3148 37.8474 33.1101 34.478 31.3493C33.4473 30.8107 30.0043 29.0327 26.8267 27.398L23.9378 25.9123L21.0492 24.4263V23.2322Z" fill="url(#paint0_linear_10703_667)" style="mix-blend-mode:multiply"/>
<path d="M24.2516 4.79748C31.7329 2.86004 38.6738 1.0236 40.8033 0.418069C41.5475 0.206415 42.2034 0.01835 42.2607 0.000190368C42.4259 -0.0522014 63.8719 10.7269 63.8935 10.8732C63.9043 10.9457 63.5148 11.1091 63.0283 11.2364C62.5416 11.3638 59.9886 12.0334 57.3549 12.7245C54.7212 13.4154 50.7395 14.4536 48.5066 15.0314C46.2736 15.6094 44.0018 16.2264 43.4577 16.403L42.4688 16.724L21.0246 21.9909L16.3395 19.6538C13.7628 18.3684 11.5845 17.3166 11.4989 17.3164C11.4134 17.3164 11.3694 20.3221 11.4011 23.9958C11.445 29.0826 11.3992 30.6755 11.2091 30.6755C11.0717 30.6755 10.603 30.5109 10.1677 30.3101L9.37635 29.9449L9.37094 23.1211C9.36803 19.3682 9.44734 16.2468 9.54728 16.1849C9.64743 16.1229 11.5914 15.5885 13.8674 14.9974C18.8387 13.7059 22.9106 12.6458 27.3254 11.4938C29.1305 11.0227 30.6529 10.6372 30.7086 10.6372C30.7643 10.6372 30.8097 10.5593 30.8097 10.4641C30.8097 10.3689 30.3431 10.0719 29.7724 9.80391C28.5407 9.22552 28.9247 9.16206 21.3679 11.1924C18.6026 11.9353 14.7474 12.9556 12.8008 13.4592C10.8541 13.9631 8.79299 14.5236 8.22045 14.7047L7.17946 15.0339L3.5914 13.2008C1.6179 12.1926 0.00167007 11.3153 4.49492e-06 11.2513C-0.00186928 11.1872 0.582331 10.9874 1.2979 10.8073C3.22769 10.3218 12.6438 7.8602 17.1729 6.65706C19.3486 6.07908 22.534 5.24229 24.2516 4.79748Z" fill="#1567DA"/>
<path d="M56.266 31.0741H50.702V28.4331H56.266V31.0741ZM53.1706 21.43H53.7972L49.9613 34.9883H47.6066L52.3349 18.4826H54.6328L59.3612 34.9883H57.0065L53.1706 21.43Z" fill="#1567DA"/>
<path d="M60.8805 34.9883V18.4826H65.6089C66.6281 18.4826 67.489 18.6712 68.1917 19.0485C68.8942 19.4258 69.4259 20.0074 69.7867 20.7935C70.154 21.5793 70.3375 22.5854 70.3375 23.8115C70.3375 25.0534 70.1571 26.0792 69.7963 26.8887C69.4353 27.6904 68.9069 28.2877 68.2106 28.6807C67.5144 29.0659 66.6661 29.2584 65.666 29.2584H63.3112V34.9883H60.8805ZM63.3112 26.7354H65.3811C66.2103 26.7354 66.8307 26.5036 67.2421 26.0399C67.6599 25.576 67.8688 24.8492 67.8688 23.8587C67.8688 22.8684 67.6568 22.1452 67.2327 21.6894C66.8148 21.2335 66.1786 21.0056 65.3241 21.0056H63.3112V26.7354Z" fill="#1567DA"/>
<path d="M72.1928 34.9883V18.4826H76.9214C77.9404 18.4826 78.8012 18.6712 79.5039 19.0485C80.2066 19.4258 80.7384 20.0074 81.0991 20.7935C81.4662 21.5793 81.6498 22.5854 81.6498 23.8115C81.6498 25.0534 81.4694 26.0792 81.1086 26.8887C80.7478 27.6904 80.2192 28.2877 79.523 28.6807C78.8266 29.0659 77.9784 29.2584 76.9782 29.2584H74.6235V34.9883H72.1928ZM74.6235 26.7354H76.6934C77.5227 26.7354 78.143 26.5036 78.5543 26.0399C78.9722 25.576 79.1811 24.8492 79.1811 23.8587C79.1811 22.8684 78.969 22.1452 78.5449 21.6894C78.1271 21.2335 77.4911 21.0056 76.6365 21.0056H74.6235V26.7354Z" fill="#1567DA"/>
<path d="M83.5052 34.9883V18.4826H85.9359V32.3001H91.405V34.9883H83.5052Z" fill="#1567DA"/>
<path d="M93.0002 34.9883V18.4826H95.4309V34.9883H93.0002Z" fill="#1567DA"/>
<path d="M104.379 35.3184C103.031 35.3184 101.844 34.9646 100.819 34.2573C99.7934 33.542 98.9925 32.5438 98.4165 31.2627C97.8468 29.9737 97.562 28.4646 97.562 26.7354C97.562 25.0062 97.8562 23.5011 98.445 22.22C99.0401 20.931 99.8565 19.9328 100.895 19.2253C101.933 18.5101 103.12 18.1525 104.455 18.1525C105.158 18.1525 105.8 18.2468 106.383 18.4354C106.965 18.6162 107.468 18.8441 107.893 19.1192L107.627 21.9959C107.146 21.7208 106.649 21.4969 106.136 21.3238C105.629 21.1431 105.063 21.0527 104.436 21.0527C103.506 21.0527 102.727 21.2964 102.101 21.7837C101.48 22.2711 101.012 22.9431 100.695 23.7999C100.379 24.6566 100.221 25.635 100.221 26.7354C100.221 27.8358 100.376 28.8143 100.686 29.671C100.996 30.5277 101.458 31.1997 102.072 31.6871C102.692 32.1745 103.461 32.4181 104.379 32.4181C105.019 32.4181 105.592 32.3317 106.098 32.1587C106.604 31.9858 107.114 31.7579 107.627 31.475L107.893 34.3516C107.393 34.6424 106.842 34.8742 106.24 35.0473C105.645 35.228 105.025 35.3184 104.379 35.3184Z" fill="#1567DA"/>
<path d="M117.186 31.0741H111.622V28.4331H117.186V31.0741ZM114.09 21.43H114.717L110.881 34.9883H108.526L113.255 18.4826H115.553L120.281 34.9883H117.926L114.09 21.43Z" fill="#1567DA"/>
<path d="M121.8 34.9883V18.4826H124.193L129.871 29.1406V18.4826H132.302V34.9883H130.308L124.231 23.67V34.9883H121.8Z" fill="#1567DA"/>
<path d="M137.809 34.9883V21.4065H134.049V18.4826H144V21.4065H140.24V34.9883H137.809Z" fill="#1567DA"/>
<path fill-rule="evenodd" clip-rule="evenodd" d="M21.468 26.1642C21.4814 26.7388 21.4932 26.8461 21.5483 26.8897C21.5839 26.9179 22.2299 27.2609 22.9841 27.6515C23.7384 28.0422 24.393 28.3985 24.4389 28.4431C24.6244 28.6235 24.6508 28.7338 24.6559 29.3444C24.6596 29.8261 24.6502 29.9348 24.5978 30.0115C24.5636 30.0621 24.5146 30.1035 24.489 30.1037C24.4635 30.1039 23.9186 29.831 23.278 29.4972C22.2004 28.9358 22.0985 28.8904 21.913 28.8898C21.5559 28.8885 21.3472 29.0875 21.1877 29.5816C21.122 29.7846 21.1143 29.9326 21.1076 31.105C21.1037 31.8193 21.1104 32.4935 21.1228 32.6034L21.1452 32.8031L23.3752 33.9684L25.6054 35.1335L25.6009 34.4674C25.597 33.868 25.5893 33.7957 25.526 33.7482C25.487 33.719 24.681 33.2908 23.7346 32.7966L22.0137 31.8978L21.9923 31.7386C21.9803 31.651 21.9805 31.3258 21.9923 31.0161C22.0149 30.4241 22.043 30.3288 22.1937 30.331C22.2342 30.3316 22.7608 30.5922 23.3634 30.9099C24.5162 31.5178 24.6915 31.5833 24.9496 31.503C25.1579 31.4381 25.2913 31.3089 25.4162 31.05L25.5299 30.815L25.5425 29.9871C25.5527 29.3129 25.5427 29.1029 25.4892 28.8571C25.3452 28.1969 25.0167 27.5582 24.6549 27.2362C24.5298 27.1245 23.99 26.8203 22.9617 26.281L21.4525 25.4898L21.468 26.1642ZM27.4273 28.9952C26.9742 29.1483 26.6754 29.5139 26.4822 30.152C26.4289 30.3276 26.4075 30.5804 26.3837 31.3073C26.3392 32.6715 26.402 33.3188 26.6565 34.1211C26.9788 35.1365 27.5951 36.0638 28.2205 36.4744C28.3408 36.5535 28.8555 36.8365 29.3638 37.103L30.288 37.5876L30.6405 37.593C30.9153 37.5973 31.0263 37.5825 31.1453 37.5263C31.3794 37.4156 31.6161 37.1624 31.7642 36.8641C32.026 36.3367 32.0856 35.8385 32.0504 34.4717C32.0239 33.4372 31.9485 32.9544 31.7091 32.2834C31.4054 31.4316 30.8856 30.6264 30.3832 30.2288C30.1464 30.0411 28.4754 29.1452 28.1426 29.0272C27.8959 28.9398 27.6267 28.9277 27.4273 28.9952ZM29.193 30.8992C30.2878 31.4714 30.4332 31.5833 30.7125 32.0683C31.0605 32.6723 31.1431 33.0831 31.1591 34.2886C31.1723 35.2925 31.1453 35.5177 30.9722 35.8478C30.8365 36.1066 30.6132 36.2353 30.3626 36.1994C30.1702 36.1719 28.4144 35.2736 28.1817 35.0836C27.8487 34.8117 27.5394 34.2788 27.3765 33.6959C27.2935 33.399 27.2815 33.2656 27.2646 32.4412C27.2528 31.8633 27.2608 31.4219 27.2862 31.2597C27.3767 30.6832 27.6356 30.3772 28.0283 30.3829C28.1868 30.3851 28.3367 30.4515 29.193 30.8992ZM33.1749 32.3025L33.1647 32.9767L34.6202 33.7399C35.4208 34.1594 36.107 34.5313 36.1452 34.5662C36.3122 34.7186 36.3651 34.9121 36.3761 35.4093C36.3887 35.9894 36.3622 36.1453 36.2418 36.1978C36.1641 36.2315 36.0057 36.1593 34.9875 35.6268C33.9525 35.0852 33.8014 35.0167 33.636 35.0141C33.3271 35.0094 33.1235 35.1517 32.9797 35.4727C32.8241 35.8194 32.8058 36.0423 32.8123 37.5144L32.8184 38.9084L35.0571 40.0783C36.2884 40.7217 37.3017 41.2426 37.3088 41.2359C37.3159 41.229 37.3127 40.9226 37.3015 40.555L37.2814 39.8865L35.4972 38.9514L33.7127 38.0164L33.7129 37.3242C33.7131 36.7508 33.7233 36.6169 33.7729 36.5441C33.806 36.4957 33.8591 36.4567 33.8913 36.4571C33.9234 36.4576 34.4544 36.7193 35.0711 37.0387C35.688 37.3582 36.2585 37.631 36.3389 37.6453C36.6822 37.705 37.0245 37.4732 37.1744 37.0792C37.2612 36.8509 37.3094 35.9298 37.2596 35.4486C37.1622 34.508 36.7839 33.677 36.2776 33.2906C36.178 33.2147 35.4415 32.8096 34.6408 32.3903L33.1851 31.6283L33.1749 32.3025ZM38.4407 34.3969C38.4321 34.4052 38.4254 34.7091 38.426 35.0719L38.4271 35.7317L39.8811 36.493C40.6808 36.9119 41.3671 37.2832 41.4059 37.3183C41.5552 37.4533 41.614 37.6804 41.6306 38.1849C41.6475 38.7001 41.6075 38.9175 41.4871 38.9641C41.4437 38.9808 41.0406 38.7912 40.2578 38.3854C39.6173 38.0533 39.0393 37.7707 38.9736 37.7573C38.6605 37.6934 38.3595 37.9089 38.1938 38.3153C38.0795 38.5955 38.0494 39.1304 38.0654 40.6011L38.0768 41.6607L40.3043 42.823C41.5292 43.4623 42.5376 43.9771 42.5451 43.9668C42.5526 43.9566 42.5548 43.6533 42.5496 43.2926L42.5408 42.6372L40.7752 41.7138C39.804 41.2057 38.9976 40.7854 38.9831 40.7797C38.9685 40.7738 38.9565 40.4557 38.9565 40.0727C38.9565 39.3236 38.9811 39.2074 39.1387 39.2097C39.1847 39.2105 39.7043 39.4627 40.2932 39.7705C41.4653 40.3825 41.6235 40.4439 41.8692 40.3821C42.3608 40.2586 42.5622 39.7288 42.5274 38.6509C42.4904 37.4996 42.2337 36.7576 41.6713 36.1751C41.5125 36.0109 41.3514 35.9054 40.9058 35.6733C40.5954 35.5117 39.9173 35.155 39.3989 34.8806C38.8806 34.6063 38.4496 34.3887 38.4407 34.3969Z" fill="#1567DA"/>
</g>
<defs>
<linearGradient id="paint0_linear_10703_667" x1="41.5082" y1="28.2152" x2="46.8468" y2="15.3027" gradientUnits="userSpaceOnUse">
<stop stop-color="white"/>
<stop offset="1" stop-color="#DBD8D8"/>
</linearGradient>
<clipPath id="clip0_10703_667">
<rect width="144" height="44" fill="white"/>
</clipPath>
</defs>
</svg>
