<svg width="902" height="437" viewBox="0 0 902 437" fill="none" xmlns="http://www.w3.org/2000/svg">
<path d="M541.159 201.473C546.491 201.473 551.321 203.635 554.815 207.125C554.885 207.208 554.958 207.284 555.029 207.373C558.379 210.854 560.448 215.581 560.448 220.78C560.448 225.978 558.309 230.941 554.815 234.431C554.708 234.511 554.637 234.584 554.564 234.655C551.088 238.019 546.365 240.092 541.159 240.092C535.953 240.092 531.016 237.93 527.541 234.431C527.47 234.361 527.397 234.278 527.29 234.198C523.973 230.717 521.907 225.987 521.907 220.78C521.907 215.572 524.047 210.618 527.541 207.125C527.611 207.048 527.7 206.972 527.755 206.904C531.249 203.543 535.99 201.473 541.159 201.473ZM541.196 186.052C550.752 186.052 559.415 189.94 565.688 196.223C565.758 196.299 565.832 196.379 565.902 196.458C572.053 202.725 575.849 211.31 575.849 220.78C575.849 230.249 571.964 239.036 565.688 245.321V245.339C559.412 251.625 550.749 255.516 541.196 255.516C531.643 255.516 522.943 251.625 516.667 245.339V245.33L516.631 245.339C510.391 239.054 506.506 230.371 506.506 220.78C506.506 211.188 510.391 202.508 516.631 196.226C516.738 196.149 516.808 196.076 516.881 196.008C523.157 189.855 531.713 186.055 541.196 186.055V186.052ZM560.198 201.718C555.331 196.841 548.594 193.822 541.196 193.822C533.798 193.822 527.168 196.768 522.335 201.531L522.139 201.718C517.273 206.595 514.261 213.337 514.261 220.78C514.261 228.222 517.273 234.967 522.139 239.841L522.121 239.85C527.006 244.724 533.706 247.733 541.196 247.733C548.685 247.733 555.331 244.715 560.198 239.844L560.216 239.853C565.083 234.979 568.079 228.231 568.079 220.783C568.079 213.334 565.156 206.767 560.415 201.905C560.345 201.847 560.271 201.786 560.201 201.721L560.198 201.718ZM541.196 155.219C559.235 155.219 575.617 162.558 587.453 174.421C599.308 186.285 606.651 202.676 606.651 220.78C606.651 238.883 599.305 255.274 587.453 267.138C575.617 279.001 559.235 286.337 541.196 286.337C523.157 286.337 506.72 278.998 494.884 267.138C483.029 255.274 475.704 238.886 475.704 220.78C475.704 202.673 483.032 186.285 494.884 174.421C506.72 162.558 523.12 155.219 541.196 155.219ZM581.963 179.917C571.536 169.458 557.095 162.992 541.196 162.992C525.297 162.992 510.819 169.458 500.374 179.917C489.928 190.372 483.475 204.82 483.475 220.776C483.475 236.733 489.928 251.181 500.374 261.636C510.819 272.097 525.257 278.56 541.196 278.56C557.135 278.56 571.536 272.097 581.963 261.636C592.427 251.184 598.88 236.739 598.88 220.776C598.88 204.813 592.427 190.372 581.963 179.917ZM541.196 93.5685C576.241 93.5685 608.008 107.808 631.002 130.831C653.963 153.848 668.187 185.654 668.187 220.78C668.187 224.968 667.973 229.171 667.563 233.402C667.135 237.689 666.512 241.846 665.711 245.872C665.301 247.969 663.25 249.335 661.147 248.924C659.044 248.505 657.689 246.46 658.099 244.354C658.885 240.444 659.472 236.534 659.863 232.643C660.236 228.813 660.45 224.861 660.45 220.776C660.45 187.794 647.079 157.932 625.494 136.32C603.906 114.709 574.101 101.339 541.196 101.339C508.291 101.339 478.431 114.712 456.843 136.32C435.255 157.932 421.905 187.791 421.905 220.776C421.905 240.569 426.72 259.217 435.203 275.63C444.01 292.689 456.809 307.345 472.354 318.352C474.099 319.582 474.509 322.001 473.28 323.743C472.051 325.485 469.642 325.904 467.897 324.671C451.356 312.933 437.701 297.328 428.307 279.182C419.267 261.676 414.153 241.816 414.153 220.773C414.153 185.645 428.377 153.841 451.356 130.825C474.35 107.805 506.118 93.5623 541.199 93.5623L541.196 93.5685ZM541.196 170.631C554.992 170.631 567.507 176.246 576.598 185.317C585.653 194.389 591.25 206.932 591.25 220.776C591.25 234.621 585.653 247.164 576.598 256.235C567.507 265.313 554.992 270.928 541.196 270.928C527.4 270.928 514.83 265.313 505.757 256.235C496.702 247.167 491.105 234.624 491.105 220.776C491.105 206.929 496.702 194.389 505.757 185.317C514.83 176.246 527.327 170.631 541.196 170.631ZM571.108 190.816C563.441 183.147 552.855 178.404 541.196 178.404C529.537 178.404 518.914 183.15 511.247 190.816C503.599 198.485 498.858 209.078 498.858 220.78C498.858 232.481 503.599 243.08 511.247 250.749C518.911 258.415 529.467 263.158 541.196 263.158C552.925 263.158 563.441 258.418 571.108 250.749C578.738 243.08 583.479 232.487 583.479 220.78C583.479 209.072 578.738 198.482 571.108 190.816ZM541.196 139.786C563.496 139.786 583.727 148.854 598.345 163.507C612.997 178.163 622.055 198.415 622.055 220.776C622.055 243.138 613 263.393 598.345 278.043C583.727 292.699 563.496 301.77 541.196 301.77C539.93 301.77 538.558 301.733 537.023 301.654C535.632 301.583 534.278 301.485 532.924 301.341C530.784 301.136 529.234 299.235 529.43 297.11C529.662 294.977 531.551 293.424 533.673 293.629C534.92 293.755 536.152 293.853 537.399 293.914C538.521 293.969 539.735 293.994 541.196 293.994C561.356 293.994 579.664 285.798 592.892 272.551C606.119 259.303 614.284 240.995 614.284 220.776C614.284 200.558 606.119 182.253 592.892 168.999C579.664 155.752 561.356 147.556 541.196 147.556C521.036 147.556 502.709 155.752 489.467 168.999C476.239 182.25 468.056 200.558 468.056 220.776C468.056 237.122 473.387 252.21 482.405 264.376C491.674 276.855 504.794 286.291 520.018 290.889C522.069 291.496 523.227 293.657 522.619 295.708C522.014 297.769 519.856 298.932 517.804 298.323C500.976 293.234 486.431 282.801 476.2 268.99C466.216 255.51 460.301 238.827 460.301 220.776C460.301 198.415 469.355 178.163 483.992 163.507C498.628 148.851 518.841 139.786 541.196 139.786ZM541.196 124.365C567.758 124.365 591.822 135.154 609.237 152.605C626.652 170.052 637.456 194.156 637.456 220.78C637.456 247.403 626.652 271.51 609.237 288.954C591.822 306.405 567.758 317.197 541.196 317.197C540.536 317.197 539.591 317.179 538.362 317.136C537.311 317.109 536.384 317.066 535.562 317.02C533.422 316.903 531.784 315.073 531.909 312.939C531.998 310.796 533.853 309.164 535.99 309.28C536.953 309.332 537.827 309.378 538.591 309.396C539.126 309.415 539.982 309.424 541.193 309.424C565.615 309.424 587.753 299.498 603.744 283.465C619.768 267.426 629.682 245.26 629.682 220.783C629.682 196.305 619.771 174.143 603.744 158.103C587.753 142.064 565.615 132.141 541.193 132.141C516.771 132.141 494.596 142.064 478.587 158.103C462.563 174.143 452.652 196.305 452.652 220.783C452.652 238.8 458.017 255.534 467.197 269.504C476.679 283.912 490.283 295.39 506.271 302.272C508.248 303.111 509.159 305.389 508.322 307.361C507.484 309.323 505.219 310.254 503.241 309.406C485.826 301.926 471.064 289.438 460.762 273.754C450.708 258.544 444.897 240.334 444.897 220.783C444.897 194.159 455.681 170.052 473.097 152.608C490.494 135.16 514.595 124.368 541.193 124.368L541.196 124.365ZM541.196 116.717C512.498 116.717 486.504 128.366 467.698 147.198C448.892 166.03 437.27 192.05 437.27 220.78C437.27 236.277 440.657 250.963 446.664 264.147C452.955 277.832 462.119 289.934 473.421 299.673C475.044 301.075 475.24 303.531 473.812 305.162C472.421 306.779 469.96 306.966 468.359 305.563C456.256 295.13 446.398 282.115 439.623 267.358C433.134 253.165 429.499 237.382 429.499 220.776C429.499 189.898 441.996 161.936 462.208 141.699C482.405 121.459 510.355 108.941 541.196 108.941C572.037 108.941 599.932 121.456 620.129 141.699C640.344 161.936 652.856 189.898 652.856 220.776C652.856 224.349 652.642 227.974 652.321 231.624C651.964 235.319 651.395 238.916 650.735 242.379C650.325 244.485 648.292 245.86 646.189 245.45C644.086 245.039 642.714 242.994 643.123 240.897C643.802 237.551 644.3 234.211 644.621 230.892C644.905 227.653 645.086 224.273 645.086 220.776C645.086 192.044 633.427 166.023 614.639 147.195C595.851 128.363 569.861 116.714 541.196 116.714V116.717ZM592.552 320.078C590.645 321.07 588.309 320.32 587.328 318.41C586.329 316.508 587.096 314.169 589.003 313.196C592.069 311.598 595.099 309.822 598.024 307.884C601.02 305.931 603.836 303.867 606.51 301.697C608.152 300.35 610.61 300.607 611.949 302.26C613.284 303.919 613.071 306.366 611.395 307.713C608.418 310.113 605.388 312.345 602.304 314.381C599.168 316.417 595.921 318.318 592.552 320.075V320.078ZM541.196 78.1014C580.52 78.1014 616.118 94.0706 641.913 119.892C667.689 145.713 683.624 181.38 683.624 220.78C683.624 224.692 683.447 228.602 683.16 232.484C682.839 236.357 682.34 240.251 681.717 244.133C681.344 246.249 679.381 247.678 677.26 247.339C675.157 246.99 673.747 245 674.068 242.884C674.674 239.314 675.102 235.637 675.423 231.868C675.707 228.244 675.887 224.539 675.887 220.78C675.887 183.526 660.771 149.797 636.419 125.387C612.034 100.974 578.377 85.8747 541.193 85.8747C504.008 85.8747 470.3 100.977 445.915 125.387C421.548 149.8 406.465 183.526 406.465 220.78C406.465 241.277 411.029 260.675 419.157 278.037C427.607 296.088 439.96 311.965 455.095 324.57C456.733 325.944 456.965 328.381 455.593 330.025C454.239 331.666 451.796 331.89 450.155 330.524C434.164 317.197 421.098 300.405 412.151 281.322C403.524 262.925 398.728 242.403 398.728 220.78C398.728 181.38 414.645 145.71 440.421 119.892C466.216 94.0706 501.832 78.1014 541.19 78.1014H541.196ZM541.196 62.6742C584.763 62.6742 624.228 80.3762 652.823 108.983C681.344 137.591 699.028 177.115 699.028 220.776C699.028 225.081 698.851 229.376 698.53 233.641C698.172 237.918 697.64 242.192 696.943 246.46C696.604 248.575 694.608 250.005 692.505 249.665C690.402 249.326 688.959 247.326 689.295 245.22C689.937 241.264 690.435 237.205 690.756 233.035C691.114 229.018 691.291 224.94 691.291 220.776C691.291 179.265 674.463 141.678 647.314 114.473C620.129 87.2739 582.623 70.4445 541.196 70.4445C499.768 70.4445 462.193 87.2739 435.026 114.473C407.877 141.678 391.067 179.265 391.067 220.776C391.067 243.31 395.986 264.679 404.863 283.835C414.098 303.76 427.503 321.327 444.007 335.377C445.649 336.761 445.844 339.207 444.472 340.839C443.081 342.474 440.657 342.679 439.018 341.295C421.655 326.514 407.501 308.034 397.841 287.084C388.518 266.911 383.33 244.442 383.33 220.776C383.33 177.119 400.978 137.591 429.536 108.983C458.127 80.3731 497.577 62.6742 541.196 62.6742ZM541.196 47.2562C589.04 47.2562 632.338 66.6787 663.678 98.0812C695.033 129.478 714.429 172.86 714.429 220.78C714.429 224.147 714.322 227.591 714.108 231.1C713.931 234.651 713.61 238.108 713.2 241.463C712.95 243.588 711.045 245.113 708.905 244.865C706.765 244.605 705.252 242.679 705.5 240.545C705.909 237.217 706.194 233.904 706.392 230.647C706.554 227.478 706.695 224.193 706.695 220.78C706.695 175.012 688.155 133.571 658.209 103.577C628.26 73.5826 586.87 55.0264 541.199 55.0264C495.529 55.0264 454.101 73.5856 424.155 103.577C394.191 133.571 375.669 175.012 375.669 220.78C375.669 244.721 380.732 267.45 389.805 287.944C399.254 309.262 413.068 328.228 430.11 343.68C431.697 345.116 431.822 347.562 430.395 349.151C428.933 350.731 426.509 350.856 424.923 349.417C407.079 333.252 392.638 313.398 382.728 291.073C373.209 269.55 367.932 245.771 367.932 220.776C367.932 172.857 387.31 129.474 418.665 98.0781C450.038 66.6757 493.337 47.2531 541.199 47.2531L541.196 47.2562ZM547.506 39.7125C545.366 39.6421 543.69 37.848 543.761 35.708C543.831 33.571 545.613 31.8963 547.753 31.9698C598.235 33.7271 648.308 57.0471 682.374 95.485C711.895 128.835 729.827 172.722 729.827 220.78C729.827 223.507 729.757 226.397 729.613 229.422C729.488 232.27 729.255 235.126 729.026 237.982C728.83 240.116 726.959 241.687 724.82 241.491C722.698 241.295 721.13 239.412 721.326 237.287C721.558 234.593 721.753 231.859 721.879 229.092C721.986 226.502 722.093 223.731 722.093 220.78C722.093 174.666 704.873 132.585 676.566 100.619C642.875 62.5671 596.847 41.4515 547.506 39.7156V39.7125ZM410.534 346.108C412.013 347.651 411.961 350.106 410.427 351.588C408.892 353.07 406.434 353.024 404.936 351.481C388.429 334.189 375.131 313.75 366.04 291.156C357.325 269.394 352.529 245.63 352.529 220.776C352.529 177.562 367.003 137.732 391.388 105.894C416.345 73.3285 451.64 49.1299 492.355 38.2368C494.422 37.6857 496.528 38.9165 497.097 40.9861C497.65 43.0557 496.421 45.1896 494.352 45.7376C455.312 56.1868 421.462 79.3842 397.557 110.603C374.168 141.124 360.266 179.323 360.266 220.78C360.266 244.66 364.9 267.441 373.242 288.275C381.942 309.938 394.668 329.532 410.534 346.108ZM618.31 39.9452C616.351 39.1063 615.421 36.8285 616.262 34.863C617.1 32.8913 619.38 31.9729 621.343 32.8087C658.35 48.6523 689.686 75.1103 711.595 108.359C732.862 140.615 745.234 179.259 745.234 220.78C745.234 223.045 745.197 225.54 745.056 228.253C744.986 230.867 744.842 233.341 744.665 235.662C744.54 237.796 742.703 239.403 740.566 239.259C738.426 239.106 736.806 237.251 736.928 235.117C737.142 232.609 737.267 230.224 737.356 227.983C737.426 225.822 737.463 223.419 737.463 220.776C737.463 180.814 725.59 143.646 705.145 112.639C684.058 80.6425 653.877 55.1795 618.316 39.9421L618.31 39.9452ZM400.015 357.374C401.476 358.908 401.424 361.363 399.908 362.854C398.34 364.336 395.897 364.29 394.418 362.747C376.342 344.02 361.831 321.839 351.887 297.291C342.367 273.643 337.128 247.813 337.128 220.78C337.128 177.229 350.746 136.844 373.939 103.666C397.808 69.5627 431.801 43.0863 471.535 28.6388C473.568 27.9071 475.778 28.948 476.49 30.9595C477.221 32.9709 476.187 35.1936 474.173 35.9284C435.955 49.831 403.225 75.3001 380.301 108.102C357.982 139.994 344.88 178.848 344.88 220.78C344.88 246.83 349.924 271.681 359.089 294.407C368.608 318.009 382.6 339.342 400.018 357.374H400.015ZM637.618 31.9759C635.71 31.0054 634.961 28.6725 635.942 26.7682C636.924 24.8639 639.241 24.1108 641.13 25.0843C676.282 43.1169 705.909 70.3526 726.874 103.604C747.178 135.852 759.387 173.766 760.494 214.454C760.601 216.591 758.889 218.373 756.786 218.431C754.646 218.489 752.864 216.806 752.794 214.666C751.687 175.425 739.924 138.846 720.314 107.737C700.08 75.643 671.47 49.3687 637.621 31.9759H637.618ZM391.905 371.121C393.384 372.63 393.421 375.085 391.905 376.601C390.389 378.119 387.964 378.119 386.433 376.619C371.53 361.764 358.731 344.77 348.57 326.14C334.63 300.656 325.86 272.394 322.901 243.499C322.118 235.974 321.724 228.397 321.724 220.78C321.724 176.632 334.737 135.506 357.126 101.051C380.227 65.5062 413.331 37.0673 452.404 19.7297C454.367 18.8663 456.666 19.7572 457.522 21.7166C458.378 23.6791 457.485 25.9722 455.562 26.8356C417.806 43.5578 385.898 70.9894 363.616 105.267C342.028 138.488 329.479 178.156 329.479 220.776C329.479 228.25 329.852 235.561 330.601 242.713C333.472 270.689 341.832 297.683 355.344 322.436C365.147 340.395 377.501 356.783 391.905 371.121ZM676.315 37.9705C674.603 36.6999 674.249 34.2721 675.496 32.5546C676.78 30.837 679.204 30.4757 680.916 31.7463C706.548 50.7923 728.191 74.9419 744.305 102.689C759.993 129.704 770.472 160.136 774.36 192.589C774.574 194.716 773.076 196.651 770.936 196.899C768.815 197.15 766.874 195.629 766.657 193.498C762.897 162.114 752.754 132.686 737.601 106.577C721.986 79.7394 701.092 56.3827 676.315 37.9705ZM398 397.337C399.657 398.684 399.908 401.121 398.554 402.783C397.218 404.443 394.775 404.694 393.134 403.347C373.114 387.056 355.842 367.526 342.08 345.566C328.587 324.009 318.477 300.111 312.507 274.635C312.027 272.547 313.326 270.456 315.414 269.967C317.499 269.486 319.584 270.778 320.067 272.869C325.826 297.524 335.593 320.617 348.643 341.433C361.941 362.686 378.662 381.576 398.003 397.34L398 397.337ZM318.123 263.69C318.514 265.797 317.123 267.823 315.02 268.215C312.935 268.607 310.921 267.223 310.526 265.117C309.135 257.895 308.084 250.532 307.372 243.052C306.678 235.634 306.32 228.198 306.32 220.78C306.32 196.52 309.991 173.096 316.802 151.037C323.897 128.213 334.343 106.877 347.589 87.6137C348.802 85.8533 351.208 85.4125 352.972 86.6279C354.717 87.8433 355.164 90.2558 353.953 92.0162C341.154 110.634 331.066 131.259 324.218 153.312C317.621 174.608 314.075 197.267 314.075 220.78C314.075 228.136 314.415 235.322 315.075 242.321C315.754 249.525 316.787 256.658 318.123 263.69ZM360.049 83.5602C358.765 85.2716 356.34 85.6114 354.629 84.3225C352.917 83.0305 352.577 80.5966 353.861 78.8852C364.967 64.205 377.785 50.8505 392.009 39.1216C406.144 27.4632 421.652 17.4335 438.232 9.32647C440.158 8.38964 442.476 9.1887 443.402 11.1175C444.328 13.0463 443.545 15.37 441.62 16.3068C425.54 24.1751 410.531 33.871 396.912 45.107C383.22 56.4133 370.815 69.33 360.049 83.5602ZM702.412 39.4002C700.807 37.9735 700.667 35.5182 702.091 33.92C703.516 32.3188 705.958 32.178 707.582 33.6016C728.937 52.666 747.013 75.3613 760.864 100.729C774.357 125.442 783.824 152.693 788.37 181.588C788.673 183.701 787.23 185.682 785.127 186.006C783.024 186.334 781.027 184.886 780.74 182.773C776.32 154.794 767.155 128.391 754.071 104.434C740.667 79.8863 723.144 57.8982 702.412 39.4002ZM389.426 410.217C391.101 411.555 391.385 414.001 389.997 415.663C388.677 417.332 386.253 417.601 384.577 416.26C363.277 399.113 344.825 378.536 330.066 355.363C315.555 332.618 304.648 307.373 298.088 280.434C297.589 278.355 298.837 276.255 300.94 275.756C303.009 275.248 305.094 276.534 305.592 278.603C311.975 304.712 322.546 329.171 336.593 351.202C350.872 373.643 368.785 393.586 389.429 410.214L389.426 410.217ZM301.866 260.182C302.205 262.297 300.778 264.287 298.656 264.627C296.553 264.976 294.557 263.537 294.236 261.431C293.129 254.702 292.292 247.936 291.741 241.142C291.206 234.403 290.922 227.61 290.922 220.78C290.922 194.622 294.933 169.379 302.367 145.652C310.068 121.104 321.458 98.1669 335.862 77.4891C337.091 75.741 339.482 75.3124 341.227 76.5339C343.009 77.7555 343.437 80.1711 342.227 81.9253C328.25 101.927 317.236 124.147 309.765 147.963C302.563 170.931 298.678 195.393 298.678 220.78C298.678 227.46 298.944 234.054 299.479 240.545C300.013 247.222 300.814 253.774 301.866 260.182ZM366.147 52.6874C364.668 54.2274 362.188 54.2763 360.675 52.7945C359.141 51.3097 359.089 48.8543 360.587 47.3113C368.412 39.1186 376.81 31.4646 385.669 24.42C396.524 15.7894 409.592 7.11909 421.802 0.472438C423.654 -0.550125 426.008 0.141788 427.026 2.02159C428.041 3.90139 427.365 6.25266 425.476 7.27522C422.624 8.87642 420.236 10.2327 417.598 11.7972C408.149 17.4243 399.095 23.673 390.502 30.4941C381.875 37.3459 373.747 44.7671 366.15 52.6905L366.147 52.6874ZM727.62 42.3332C726.14 40.784 726.21 38.3287 727.763 36.853C729.332 35.3742 731.756 35.4385 733.254 36.9908C751.045 55.6694 766.195 76.9411 777.998 100.172C789.55 122.855 797.944 147.446 802.597 173.371C802.988 175.474 801.564 177.489 799.494 177.863C797.391 178.239 795.358 176.84 794.985 174.734C790.476 149.632 782.311 125.761 771.098 103.693C759.601 81.114 744.913 60.4607 727.62 42.3332ZM367.037 411.298C368.605 412.733 368.712 415.189 367.269 416.759C365.826 418.339 363.384 418.446 361.831 417.001C343.899 400.576 328.266 381.732 315.393 361.024C302.756 340.637 292.772 318.391 285.961 294.781C285.356 292.726 286.566 290.577 288.599 289.977C290.65 289.389 292.787 290.565 293.377 292.619C299.989 315.507 309.67 337.11 321.971 356.924C334.487 377.082 349.673 395.38 367.037 411.294V411.298ZM284.931 249.987C285.145 252.121 283.647 254.04 281.507 254.273C279.367 254.506 277.444 252.969 277.227 250.835C276.692 245.952 276.264 240.971 275.962 235.919C275.677 230.803 275.515 225.751 275.515 220.776C275.515 194.401 279.367 168.901 286.532 144.822C293.912 119.916 304.859 96.5351 318.743 75.2756C319.939 73.4815 322.326 72.9825 324.108 74.1551C325.927 75.3246 326.425 77.731 325.23 79.5251C311.737 100.169 301.111 122.868 293.945 147.033C286.994 170.383 283.268 195.133 283.268 220.77C283.268 225.825 283.411 230.727 283.696 235.484C283.962 240.306 284.393 245.143 284.925 249.981L284.931 249.987ZM746.71 40.3891C745.301 38.7787 745.463 36.3325 747.068 34.9242C748.691 33.5159 751.115 33.6812 752.54 35.2885C768.583 53.6549 782.345 74.1245 793.255 96.229C803.933 117.883 811.936 141.093 816.769 165.423C817.197 167.527 815.824 169.575 813.721 169.994C811.618 170.414 809.585 169.045 809.157 166.945C804.453 143.258 796.679 120.685 786.304 99.664C775.696 78.1535 762.346 58.2411 746.713 40.3922L746.71 40.3891ZM349.352 415.725C350.869 417.225 350.887 419.68 349.389 421.205C347.891 422.732 345.449 422.748 343.935 421.251C325.576 403.138 309.71 382.51 296.874 359.943C284.252 337.796 274.555 313.765 268.316 288.388C267.818 286.318 269.065 284.209 271.168 283.701C273.201 283.183 275.304 284.46 275.839 286.539C281.901 311.212 291.347 334.581 303.575 356.113C316.09 378.064 331.527 398.111 349.352 415.725ZM268.497 239.455C268.674 241.598 267.054 243.444 264.914 243.588C262.774 243.732 260.94 242.116 260.796 239.972C260.582 236.938 260.439 233.751 260.298 230.42C260.191 226.976 260.121 223.752 260.121 220.776C260.121 193.155 264.113 166.443 271.529 141.185C279.193 115.103 290.549 90.5742 305.005 68.2034C306.146 66.4093 308.536 65.895 310.337 67.0492C312.101 68.2065 312.636 70.6006 311.477 72.3947C297.467 94.1104 286.432 117.963 278.964 143.368C271.761 167.888 267.894 193.868 267.894 220.776C267.894 224.166 267.931 227.285 268.038 230.151C268.145 233.133 268.304 236.237 268.503 239.452L268.497 239.455ZM767.87 41.7392C766.55 40.0615 766.837 37.6276 768.512 36.305C770.188 34.9763 772.612 35.261 773.932 36.9387C787.82 54.5366 799.727 73.7295 809.371 94.1747C818.854 114.274 826.126 135.588 830.904 157.806C831.369 159.903 830.03 161.973 827.945 162.426C825.842 162.876 823.775 161.544 823.329 159.45C818.64 137.777 811.581 117.023 802.365 97.4873C792.952 77.532 781.367 58.8442 767.87 41.7392ZM334.132 422.261C335.63 423.798 335.593 426.25 334.062 427.741C332.53 429.232 330.069 429.205 328.59 427.671C312.244 410.798 297.84 392 285.826 371.647C274.008 351.634 264.471 330.077 257.556 307.333C256.914 305.288 258.091 303.129 260.142 302.505C262.193 301.889 264.33 303.05 264.957 305.095C271.676 327.178 280.981 348.174 292.496 367.704C304.208 387.54 318.236 405.857 334.138 422.261H334.132ZM252.506 223.667C252.524 225.807 250.812 227.564 248.691 227.582C246.551 227.61 244.805 225.895 244.769 223.758C244.769 222.766 244.717 221.768 244.717 220.78C244.717 191.832 248.889 163.816 256.623 137.309C264.608 109.905 276.445 84.1511 291.472 60.6811C292.631 58.8809 295.019 58.3574 296.837 59.5116C298.638 60.6689 299.155 63.0722 297.978 64.8724C283.344 87.7484 271.829 112.82 264.037 139.464C256.513 165.227 252.484 192.515 252.484 220.776V222.476L252.503 223.663L252.506 223.667ZM791.757 48.2145C790.547 46.4541 790.972 44.0385 792.757 42.8261C794.502 41.6076 796.926 42.0485 798.103 43.8089C809.405 60.1944 819.138 77.7096 827.159 96.1432C835.037 114.243 841.243 133.249 845.59 152.963C846.054 155.051 844.734 157.12 842.667 157.58C840.598 158.039 838.531 156.719 838.07 154.634C833.827 135.438 827.765 116.907 820.064 99.2415C812.22 81.2579 802.738 64.1836 791.757 48.2145ZM312.419 421.437C313.809 423.045 313.666 425.491 312.061 426.899C310.456 428.311 307.995 428.148 306.607 426.532C291.365 409.133 278.049 390.014 266.925 369.519C255.982 349.338 247.211 327.833 240.899 305.322C240.327 303.258 241.504 301.118 243.592 300.536C245.643 299.964 247.78 301.161 248.351 303.23C254.52 325.216 263.077 346.175 273.736 365.815C284.558 385.81 297.553 404.458 312.419 421.434V421.437ZM237.105 223.991C237.142 226.128 235.43 227.885 233.29 227.913C231.15 227.94 229.405 226.226 229.386 224.083L229.334 220.78C229.334 191.15 233.452 162.469 241.189 135.291C249.14 107.208 260.94 80.7252 275.968 56.447C277.09 54.6284 279.48 54.062 281.299 55.1856C283.118 56.3092 283.668 58.6973 282.565 60.5158C267.913 84.1664 256.413 109.991 248.624 137.392C241.119 163.877 237.09 191.848 237.09 220.78V222.76L237.108 223.991H237.105ZM808.604 45.707C807.427 43.913 807.944 41.5035 809.726 40.3309C811.545 39.1584 813.914 39.6604 815.091 41.4545C826.481 58.835 837.214 79.5006 844.841 98.4578C850.707 113.113 855.607 128.329 859.352 144.014C859.85 146.09 858.569 148.178 856.5 148.674C854.397 149.166 852.312 147.881 851.829 145.805C848.157 130.558 843.416 115.707 837.639 101.342C829.724 81.6712 820.205 63.4274 808.601 45.707H808.604ZM289.495 417.923C290.815 419.61 290.509 422.038 288.834 423.36C287.159 424.674 284.717 424.377 283.414 422.69C272.058 408.166 261.881 392.671 253.093 376.362C242.968 357.564 234.659 337.756 228.387 317.332C227.745 315.287 228.903 313.11 230.954 312.486C232.987 311.861 235.127 313.003 235.769 315.048C241.938 335.043 249.975 354.288 259.907 372.694C268.533 388.645 278.447 403.775 289.498 417.926L289.495 417.923ZM222.523 197.674C222.364 199.811 220.509 201.424 218.387 201.271C216.248 201.121 214.661 199.263 214.786 197.129C216.676 170.674 221.701 145.073 229.493 120.7C237.496 95.6748 248.388 71.9661 261.848 49.9779C262.936 48.1502 265.342 47.5715 267.161 48.689C268.998 49.8034 269.566 52.1914 268.463 54.0192C255.343 75.5022 244.683 98.6476 236.839 123.067C229.282 146.827 224.361 171.822 222.523 197.674ZM845.128 79.8465C844.22 77.8994 845.073 75.594 847.017 74.7C848.961 73.7999 851.26 74.651 852.15 76.5951C856.714 86.4932 860.868 96.6882 864.558 107.143C868.159 117.47 871.295 128.011 873.933 138.73C874.432 140.808 873.185 142.909 871.081 143.42C869.012 143.931 866.909 142.661 866.392 140.582C863.824 130.065 860.776 119.76 857.246 109.694C853.681 99.5508 849.652 89.5854 845.125 79.8465H845.128ZM273.415 422.261C274.699 423.966 274.36 426.394 272.648 427.68C270.936 428.966 268.493 428.617 267.21 426.911C255.89 411.809 245.765 395.766 237.047 378.958C228.42 362.346 221.111 344.886 215.211 326.737C214.551 324.701 215.676 322.515 217.724 321.863C219.72 321.211 221.93 322.328 222.572 324.361C228.277 342.017 235.46 359.067 243.928 375.376C252.503 391.89 262.377 407.565 273.412 422.258L273.415 422.261ZM206.407 211.304C206.355 213.441 204.57 215.131 202.449 215.07C200.309 215.012 198.615 213.23 198.689 211.093C199.489 181.937 203.928 153.71 211.54 126.848C219.402 99.1466 230.649 72.8723 244.802 48.5053C245.891 46.65 248.241 46.0193 250.06 47.0939C251.949 48.1655 252.573 50.5412 251.521 52.3904C237.652 76.2033 226.672 101.878 219.008 128.942C211.54 155.244 207.208 182.844 206.404 211.304H206.407ZM861.599 78.8729C860.743 76.9105 861.635 74.6204 863.558 73.7571C865.536 72.8968 867.82 73.7846 868.676 75.7471C872.099 83.4806 875.288 91.4468 878.247 99.6395C881.099 107.698 883.7 115.86 886.018 124.111C886.589 126.174 885.376 128.308 883.343 128.877C881.276 129.45 879.136 128.241 878.531 126.174C876.284 118.049 873.753 110.067 870.938 102.248C868.138 94.4135 865.02 86.6126 861.596 78.8729H861.599ZM260.564 430.803C261.848 432.517 261.49 434.945 259.778 436.231C258.085 437.508 255.661 437.159 254.377 435.453C242.042 418.93 231.077 401.311 221.701 382.788C212.451 364.526 204.695 345.333 198.634 325.366C198.01 323.33 199.15 321.162 201.22 320.547C203.253 319.922 205.408 321.082 206.031 323.128C211.95 342.596 219.525 361.379 228.601 379.301C237.799 397.45 248.529 414.677 260.564 430.806V430.803ZM190.988 229.637C191.025 231.771 189.35 233.555 187.21 233.601C185.07 233.647 183.306 231.957 183.251 229.817C183.214 228.363 183.196 226.863 183.181 225.311C183.144 223.039 183.129 221.496 183.129 220.783C183.129 188.71 187.353 157.604 195.25 127.999C203.396 97.4475 215.483 68.4942 230.921 41.7147C231.991 39.8625 234.378 39.2288 236.215 40.3003C238.068 41.3749 238.695 43.7507 237.625 45.5999C222.526 71.7732 210.708 100.099 202.757 130.001C195.02 158.942 190.884 189.377 190.884 220.783C190.884 223.057 190.903 224.508 190.903 225.222C190.921 226.652 190.958 228.124 190.991 229.64L190.988 229.637ZM881.637 86.8483C880.851 84.8522 881.833 82.6019 883.847 81.8243C885.807 81.0467 888.09 82.0294 888.839 84.0256C891.37 90.51 893.742 97.0311 895.879 103.574L895.949 103.767C898.108 110.349 900.104 116.992 901.868 123.685C902.421 125.755 901.189 127.889 899.104 128.44C897.071 128.991 894.932 127.76 894.363 125.693C892.617 119.096 890.692 112.59 888.588 106.185L888.518 106.008C886.378 99.4865 884.079 93.097 881.637 86.8544V86.8483ZM235.197 421.333C236.338 423.127 235.839 425.537 234.057 426.706C232.275 427.885 229.851 427.377 228.674 425.583C217.926 409.158 208.425 391.786 200.278 373.622C192.275 355.724 185.645 337.113 180.509 317.92C179.937 315.85 181.169 313.716 183.236 313.162C185.302 312.617 187.424 313.851 187.977 315.911C193.021 334.765 199.529 352.993 207.318 370.462C215.269 388.174 224.608 405.177 235.197 421.333ZM175.587 229.912C175.624 232.046 173.946 233.822 171.809 233.868C169.669 233.92 167.905 232.227 167.869 230.093C167.832 228.602 167.798 227.04 167.78 225.442C167.743 223.103 167.725 221.514 167.725 220.78C167.725 189.931 171.485 159.931 178.528 131.213C185.801 101.623 196.585 73.4111 210.418 47.0541C211.418 45.159 213.735 44.4334 215.642 45.4315C217.531 46.4296 218.262 48.7778 217.266 50.6698C203.736 76.4757 193.165 104.091 186.07 133.066C179.155 161.14 175.499 190.516 175.499 220.78V225.353C175.535 226.817 175.551 228.345 175.587 229.915V229.912ZM221.435 428.534C222.63 430.328 222.114 432.728 220.329 433.889C218.546 435.058 216.141 434.55 214.964 432.756C192.77 398.54 175.658 359.995 165.249 320.559C164.714 318.489 165.961 316.365 168.031 315.82C170.063 315.275 172.2 316.515 172.735 318.587C183.129 357.935 199.33 394.41 221.435 428.534ZM160.08 220.822C160.098 222.959 158.386 224.714 156.264 224.738C154.125 224.766 152.379 223.054 152.342 220.917V220.783H152.324C152.324 203.237 153.519 185.899 155.781 168.855C158.08 151.521 161.541 134.532 166.068 117.975C166.64 115.912 168.761 114.693 170.809 115.257C172.876 115.817 174.089 117.945 173.518 120.011C169.116 136.213 165.729 152.856 163.445 169.86C161.253 186.456 160.095 203.457 160.095 220.786H160.076V220.828L160.08 220.822ZM176.89 108.353C176.266 110.398 174.126 111.549 172.06 110.918C170.027 110.291 168.887 108.123 169.51 106.072C172.809 95.3595 176.517 84.8858 180.653 74.6786C184.822 64.3336 189.46 54.2182 194.449 44.363C195.411 42.4495 197.747 41.6872 199.655 42.6638C201.562 43.6313 202.329 45.9703 201.366 47.8838C196.429 57.5675 191.917 67.4809 187.836 77.5932C183.755 87.6872 180.118 97.9496 176.893 108.35L176.89 108.353ZM184.501 394.373C185.446 396.302 184.645 398.623 182.719 399.56C180.793 400.506 178.476 399.703 177.55 397.775C171.525 385.357 166.071 372.538 161.293 359.364C156.552 346.34 152.452 333.032 149.065 319.472C148.549 317.393 149.814 315.284 151.881 314.766C153.984 314.249 156.087 315.507 156.589 317.595C159.939 330.932 163.931 343.989 168.569 356.71C173.24 369.547 178.553 382.115 184.504 394.37L184.501 394.373ZM144.767 214.411C144.731 216.548 142.967 218.254 140.845 218.22C138.706 218.192 136.994 216.429 137.03 214.292C137.263 199.14 138.333 184.188 140.185 169.486C142.074 154.573 144.767 139.911 148.225 125.565C148.705 123.489 150.811 122.209 152.896 122.711C154.962 123.214 156.246 125.311 155.748 127.386C152.342 141.473 149.704 155.85 147.852 170.46C146.051 184.886 145 199.557 144.767 214.415V214.411ZM161.076 107.45C160.489 109.504 158.331 110.673 156.28 110.061C154.229 109.449 153.088 107.287 153.678 105.236C157.6 92.0193 162.216 78.9923 167.474 66.2471C168.275 64.2662 170.522 63.3233 172.518 64.1346C174.514 64.952 175.441 67.2145 174.621 69.1923C169.415 81.8396 165.032 94.2512 161.073 107.45H161.076ZM170.666 401.106C171.592 403.034 170.791 405.364 168.884 406.301C166.939 407.247 164.64 406.445 163.678 404.516C157.918 392.634 152.66 380.36 147.956 367.741C143.285 355.253 139.222 342.532 135.78 329.652C135.227 327.573 136.474 325.448 138.543 324.894C140.576 324.34 142.716 325.574 143.285 327.643C146.709 340.425 150.664 352.895 155.192 365.037C159.756 377.274 164.925 389.319 170.666 401.109V401.106ZM130.308 191.747C130.183 193.884 128.349 195.503 126.209 195.362C124.069 195.219 122.449 193.366 122.571 191.229C123.176 182.712 124.032 174.207 125.139 165.717C126.261 157.188 127.618 148.799 129.205 140.557C129.633 138.454 131.665 137.076 133.732 137.477C135.835 137.878 137.226 139.914 136.835 142.018C135.23 150.229 133.912 158.474 132.824 166.721C131.772 174.93 130.916 183.275 130.311 191.747H130.308ZM156.833 407.905C157.796 409.834 156.977 412.155 155.051 413.101C153.125 414.038 150.79 413.236 149.863 411.307C143.997 399.266 138.669 386.875 133.909 374.164C129.205 361.667 125.05 348.839 121.467 335.735C120.896 333.672 122.128 331.541 124.194 330.987C126.245 330.423 128.364 331.639 128.936 333.699C132.411 346.481 136.492 359.067 141.145 371.424C145.816 383.832 151.037 396.008 156.833 407.905ZM114.837 192.757C114.693 194.894 112.878 196.517 110.738 196.388C108.598 196.253 106.959 194.41 107.1 192.27C107.458 186.879 107.901 181.454 108.454 176.01C109.026 170.604 109.649 165.27 110.38 160.02C110.664 157.898 112.627 156.413 114.748 156.707C116.87 156.998 118.331 158.957 118.047 161.082C117.316 166.327 116.693 171.559 116.158 176.766C115.623 182.014 115.176 187.347 114.84 192.757H114.837ZM141.897 412.467C142.823 414.396 142.004 416.707 140.078 417.626C138.152 418.544 135.835 417.733 134.927 415.804C130.024 405.575 125.496 395.157 121.397 384.57C117.298 374.1 113.59 363.369 110.239 352.381C110.096 351.882 110.044 351.38 110.096 350.89C109.775 350.507 109.542 350.051 109.417 349.552C108.598 346.882 107.812 344.133 107.03 341.313C106.458 339.25 107.672 337.11 109.738 336.546C111.789 335.974 113.926 337.189 114.479 339.244C115.228 341.904 115.996 344.608 116.815 347.366C116.958 347.856 117.01 348.358 116.958 348.839C117.261 349.212 117.475 349.65 117.652 350.134C120.862 360.773 124.534 371.326 128.596 381.75H128.56L128.596 381.76C132.662 392.221 137.101 402.462 141.894 412.467H141.897ZM99.9681 184.549C99.8092 186.686 97.9353 188.281 95.8321 188.116C93.6922 187.95 92.0721 186.08 92.231 183.943C92.4083 181.913 92.6223 179.507 92.8913 176.763V176.748C93.1572 174.14 93.4079 171.764 93.6586 169.615C93.8726 167.484 95.7984 165.947 97.9383 166.183C100.041 166.418 101.591 168.335 101.362 170.469C101.059 173.031 100.79 175.383 100.595 177.507C100.399 179.494 100.204 181.833 99.9712 184.549H99.9681ZM116.261 392.472C117.047 394.453 116.084 396.712 114.122 397.505C112.125 398.298 109.879 397.337 109.096 395.353C104.942 385.106 101.163 374.669 97.7396 364.058C94.3342 353.523 91.3231 342.813 88.685 331.93C88.1683 329.851 89.4523 327.76 91.5187 327.251C93.6219 326.752 95.6915 328.029 96.1897 330.108C98.7912 340.765 101.787 351.3 105.137 361.682C108.454 372.1 112.177 382.366 116.261 392.469V392.472ZM99.5432 392.043C100.31 394.033 99.3108 396.284 97.3147 397.052C95.3368 397.83 93.09 396.829 92.341 394.839C87.8657 383.306 83.8551 371.611 80.254 359.775C76.7416 348.009 73.6418 336.047 71.019 323.945C70.5543 321.848 71.875 319.784 73.9781 319.331C76.0813 318.884 78.1142 320.216 78.5758 322.313C81.1772 334.247 84.2433 346.013 87.7037 357.564C91.2345 369.311 95.1901 380.807 99.5401 392.046L99.5432 392.043ZM83.4271 393.026C84.176 395.035 83.1611 397.266 81.1803 398.026C79.1657 398.776 76.9372 397.765 76.1699 395.757C71.8016 384.062 67.8092 372.11 64.2632 359.934C60.7508 347.874 57.7214 335.652 55.1199 323.317C54.692 321.22 56.0462 319.166 58.1493 318.728C60.2158 318.29 62.2487 319.637 62.6767 321.738C65.2445 333.959 68.2372 345.973 71.6977 357.772C75.155 369.673 79.077 381.435 83.4271 393.023V393.026ZM67.5249 394.419C68.2372 396.428 67.2223 398.659 65.2078 399.4C63.2116 400.132 60.9647 399.106 60.2525 397.089C56.1867 386.003 52.4451 374.611 49.1283 362.937C45.7963 351.395 42.8708 339.782 40.3947 328.142C39.9667 326.045 41.2873 323.982 43.3905 323.544C45.4753 323.097 47.5448 324.438 47.9881 326.535C50.4826 338.221 53.301 349.647 56.5444 360.812C59.7878 372.061 63.4439 383.272 67.5249 394.419ZM50.1983 391.722C50.9105 393.749 49.8253 395.953 47.8108 396.657C45.7963 397.361 43.6045 396.29 42.8922 394.272C39.1475 383.551 35.7604 372.688 32.731 361.691C29.7352 350.792 27.0787 339.73 24.7463 328.528C24.355 326.44 25.6725 324.386 27.7757 323.966C29.8789 323.538 31.9117 324.885 32.3397 326.982C34.6201 337.979 37.243 348.869 40.2174 359.628C43.2132 370.472 46.5636 381.184 50.2013 391.719L50.1983 391.722ZM33.4249 390.268C34.1188 392.304 32.9969 394.49 30.9641 395.16C28.9495 395.831 26.7394 394.731 26.0974 392.695C23.496 384.867 21.0871 377.085 18.8953 369.363C16.6851 361.517 14.634 353.627 12.7631 345.7C12.2985 343.622 13.5824 341.531 15.6519 341.041C17.7551 340.551 19.8399 341.852 20.3229 343.943C22.1754 351.814 24.1746 359.591 26.3481 367.269C28.5949 375.134 30.9457 382.81 33.4249 390.274V390.268ZM17.6664 391.661C18.3267 393.697 17.2201 395.883 15.1872 396.544C13.1544 397.205 10.9442 396.088 10.3023 394.055C8.48341 388.403 6.66454 382.568 4.91904 376.549C3.17353 370.469 1.56862 364.569 0.122695 358.874C-0.412268 356.796 0.853311 354.68 2.92285 354.153C5.02602 353.627 7.09251 354.885 7.66415 356.964C9.18039 363.035 10.7669 368.855 12.3688 374.396C14.0073 380.048 15.7925 385.804 17.6634 391.661H17.6664ZM541.159 215.651C538.344 215.651 536.06 217.948 536.06 220.78C536.06 223.611 538.341 225.905 541.159 225.905C543.978 225.905 546.295 223.615 546.295 220.78C546.295 217.945 543.978 215.651 541.159 215.651ZM549.324 212.624C547.221 210.539 544.351 209.244 541.159 209.244C537.968 209.244 535.259 210.465 533.19 212.449L533.031 212.624C530.946 214.708 529.644 217.595 529.644 220.78C529.644 223.964 530.891 226.701 532.854 228.77L533.031 228.939C535.097 231.017 537.986 232.322 541.159 232.322C544.332 232.322 547.078 231.1 549.144 229.116L549.321 228.939C551.388 226.851 552.708 223.964 552.708 220.776C552.708 217.589 551.48 214.855 549.499 212.795L549.321 212.62L549.324 212.624Z" fill="url(#paint0_linear_10946_2420)"/>
<defs>
<linearGradient id="paint0_linear_10946_2420" x1="222.01" y1="11.1971" x2="620.065" y2="408.649" gradientUnits="userSpaceOnUse">
<stop stop-color="#15DA9C"/>
<stop offset="1" stop-color="#1567DA"/>
</linearGradient>
</defs>
</svg>
